<svg xmlns="http://www.w3.org/2000/svg" version="1.1" xmlns:xlink="http://www.w3.org/1999/xlink" xmlns:svgjs="http://svgjs.dev/svgjs" width="1500" height="1500" viewBox="0 0 1500 1500"><rect width="1500" height="1500" fill="#000000"></rect><g transform="matrix(0.6666666666666666,0,0,0.6666666666666666,249.47167476386755,374.4591397849462)"><svg viewBox="0 0 331 248" data-background-color="#ffffff" preserveAspectRatio="xMidYMid meet" height="1123" width="1500" xmlns="http://www.w3.org/2000/svg" xmlns:xlink="http://www.w3.org/1999/xlink"><g id="tight-bounds" transform="matrix(1,0,0,1,0.17487565315983034,0.4000000000000057)"><svg viewBox="0 0 330.65024869368034 247.2" height="247.2" width="330.65024869368034"><g><svg viewBox="0 0 397.4975999999999 297.17626739495034" height="247.2" width="330.65024869368034"><g><rect width="397.4975999999999" height="6.908109435001424" x="0" y="165.50901967491518" fill="#ffffff" opacity="1" stroke-width="0" stroke="transparent" fill-opacity="1" class="rect-yte-0" data-fill-palette-color="primary" rx="1%" id="yte-0" data-palette-color="#6f605b"></rect></g><g transform="matrix(1,0,0,1,0.9887999999999693,190.5011852224858)"><svg viewBox="0 0 395.52 106.67508217246454" height="106.67508217246454" width="395.52"><g id="textblocktransform"><svg viewBox="0 0 395.52 106.67508217246454" height="106.67508217246454" width="395.52" id="textblock"><g><svg viewBox="0 0 395.52 76.60268774703557" height="76.60268774703557" width="395.52"><g transform="matrix(1,0,0,1,0,0)"><svg width="395.52" viewBox="4.2 -35 202.39000000000001 39.2" height="76.60268774703557" data-palette-color="#6f605b"><g class="wordmark-text-0" data-fill-palette-color="primary" id="text-0"><path d="M45.4-10L45.4-10Q45.4-7.25 44.05-4.98 42.7-2.7 40.43-1.35 38.15 0 35.4 0L35.4 0 11.7 0 11.7-5 35.4-5Q37.45-5 38.93-6.48 40.4-7.95 40.4-10L40.4-10Q40.4-12.05 38.93-13.53 37.45-15 35.4-15L35.4-15 11.7-15 11.7-20 30.4-20Q32.45-20 33.93-21.48 35.4-22.95 35.4-25L35.4-25Q35.4-27.05 33.93-28.53 32.45-30 30.4-30L30.4-30 9.2-30 9.2 0 4.2 0 4.2-35 30.4-35Q33.15-35 35.43-33.65 37.7-32.3 39.05-30.03 40.4-27.75 40.4-25L40.4-25Q40.4-23.45 39.95-22.03 39.5-20.6 38.7-19.4L38.7-19.4Q41.65-18.4 43.53-15.83 45.4-13.25 45.4-10ZM83.05-13.8L83.05-13.8Q83.05-10 81.47-6.88 79.9-3.75 77.05-1.88 74.2 0 70.4 0L70.4 0 61.7 0Q57.9 0 55.02-1.88 52.15-3.75 50.57-6.88 49-10 49-13.8L49-13.8Q49-17.6 50.57-20.7 52.15-23.8 55.02-25.65 57.9-27.5 61.7-27.5L61.7-27.5 70.4-27.5Q74.2-27.5 77.05-25.65 79.9-23.8 81.47-20.7 83.05-17.6 83.05-13.8ZM78.05-13.8L78.05-13.8Q78.05-16.2 77.15-18.2 76.25-20.2 74.52-21.38 72.8-22.55 70.4-22.55L70.4-22.55 61.7-22.55Q59.3-22.55 57.57-21.38 55.85-20.2 54.92-18.2 54-16.2 54-13.8L54-13.8Q54-11.4 54.92-9.4 55.85-7.4 57.57-6.2 59.3-5 61.7-5L61.7-5 70.4-5Q72.8-5 74.52-6.2 76.25-7.4 77.15-9.4 78.05-11.4 78.05-13.8ZM121.2-13.85L121.2-13.85Q121.2-10 119.59-6.85 118-3.7 115.09-1.85 112.2 0 108.34 0L108.34 0 96.05 0 96.05-5.05 108.34-5.05Q110.8-5.05 112.52-6.23 114.25-7.4 115.2-9.4 116.15-11.4 116.15-13.85L116.15-13.85Q116.15-16.3 115.2-18.25 114.25-20.2 112.52-21.38 110.8-22.55 108.34-22.55L108.34-22.55 93.7-22.55 93.7 0 88.59 0 88.59-27.6 108.34-27.6Q112.2-27.6 115.09-25.75 118-23.9 119.59-20.8 121.2-17.7 121.2-13.85ZM157.24-27.5L157.24-8.1Q157.24-5.85 155.89-4.03 154.54-2.2 152.27-1.1 149.99 0 147.24 0L147.24 0 125.74 0 125.74-5 147.24-5Q149.29-5 150.77-5.9 152.24-6.8 152.24-8.1L152.24-8.1 152.24-9.35 135.69-9.35Q132.94-9.35 130.69-10.7 128.44-12.05 127.09-14.33 125.74-16.6 125.74-19.35L125.74-19.35 125.74-27.5 130.69-27.5 130.69-19.35Q130.69-17.25 132.17-15.8 133.64-14.35 135.69-14.35L135.69-14.35 152.24-14.35 152.24-27.5 157.24-27.5ZM203.04 4.2L196.29 4.2 191.79-0.05Q191.49 0 191.17 0 190.84 0 190.54 0L190.54 0 178.89 0Q175.24 0 172.29-1.35 169.34-2.7 167.22-5.1 165.09-7.5 163.94-10.68 162.79-13.85 162.79-17.5L162.79-17.5Q162.79-21.1 163.94-24.28 165.09-27.45 167.22-29.88 169.34-32.3 172.29-33.65 175.24-35 178.89-35L178.89-35 190.54-35Q194.14-35 197.09-33.65 200.04-32.3 202.17-29.88 204.29-27.45 205.44-24.28 206.59-21.1 206.59-17.5L206.59-17.5Q206.59-13.9 205.44-10.73 204.29-7.55 202.19-5.15 200.09-2.75 197.19-1.4L197.19-1.4 203.04 4.2ZM201.59-17.5L201.59-17.5Q201.59-20.95 200.27-23.8 198.94-26.65 196.47-28.33 193.99-30 190.54-30L190.54-30 178.89-30Q175.44-30 172.97-28.33 170.49-26.65 169.14-23.8 167.79-20.95 167.79-17.5L167.79-17.5Q167.79-14.05 169.14-11.23 170.49-8.4 172.97-6.7 175.44-5 178.89-5L178.89-5 186.59-5 181.84-9.55 188.84-9.55 193.19-5.3Q195.84-5.95 197.72-7.7 199.59-9.45 200.59-12 201.59-14.55 201.59-17.5Z" fill="#ffffff" data-fill-palette-color="primary"></path></g></svg></g></svg></g><g transform="matrix(1,0,0,1,75.54432,94.68674385960475)"><svg viewBox="0 0 244.43135999999998 11.988338312859797" height="11.988338312859797" width="244.43135999999998"><g transform="matrix(1,0,0,1,0,0)"><svg width="244.43135999999998" viewBox="1.5 -38.2 1102.94 54.1" height="11.988338312859797" data-palette-color="#f36527"><path d="M34-21.65L34-21.65Q36.6-20.6 38.02-18.48 39.45-16.35 39.45-13.6L39.45-13.6Q39.45-10.85 38.58-8.25 37.7-5.65 36.1-3.63 34.5-1.6 32.27-0.38 30.05 0.85 27.35 0.85L27.35 0.85Q26 0.85 24.83 0.53 23.65 0.2 22.75-0.43 21.85-1.05 21.33-2 20.8-2.95 20.8-4.25L20.8-4.25Q20.8-6.35 21.85-7.85 22.9-9.35 24.85-9.35L24.85-9.35Q26.1-9.35 26.83-8.55 27.55-7.75 27.55-6.75L27.55-6.75Q27.55-4.85 25.65-4.85L25.65-4.85Q24.1-4.85 23.2-6.15L23.2-6.15Q22.9-5.6 22.9-4.8L22.9-4.8Q22.9-3.25 24.1-2.25 25.3-1.25 27-1.25L27-1.25Q29.25-1.25 31.1-2.3 32.95-3.35 34.27-5.1 35.6-6.85 36.35-9.1 37.1-11.35 37.1-13.75L37.1-13.75Q37.1-15.65 36.15-17.25 35.2-18.85 33.45-19.4L33.45-19.4Q33.15-18.15 32.25-16.82 31.35-15.5 30.18-14.43 29-13.35 27.68-12.65 26.35-11.95 25.15-11.95L25.15-11.95Q22.5-11.95 22.5-14.2L22.5-14.2Q22.5-15.85 23.3-17.28 24.1-18.7 25.38-19.75 26.65-20.8 28.3-21.4 29.95-22 31.7-22L31.7-22Q32-22.95 32-24.05L32-24.05Q32-25.25 31.65-26.28 31.3-27.3 30.63-28.08 29.95-28.85 28.95-29.3 27.95-29.75 26.7-29.75L26.7-29.75Q26.15-29.75 26-29.7L26-29.7Q20.65-14.6 15.8-6.98 10.95 0.65 6.25 0.65L6.25 0.65Q4.15 0.65 2.83-0.9 1.5-2.45 1.5-5.3L1.5-5.3Q1.5-8.4 2.7-11.6 3.9-14.8 5.9-17.78 7.9-20.75 10.48-23.38 13.05-26 15.85-27.93 18.65-29.85 21.43-30.98 24.2-32.1 26.55-32.1L26.55-32.1Q28.2-32.1 29.63-31.45 31.05-30.8 32.08-29.68 33.1-28.55 33.7-27.08 34.3-25.6 34.3-23.95L34.3-23.95Q34.3-22.75 34-21.65ZM25.45-14L25.45-14Q25.95-14 26.78-14.55 27.6-15.1 28.48-15.98 29.35-16.85 30.08-17.88 30.8-18.9 31.05-19.85L31.05-19.85 30.55-19.85Q29.5-19.85 28.45-19.33 27.4-18.8 26.58-18.03 25.75-17.25 25.25-16.35 24.75-15.45 24.75-14.7L24.75-14.7Q24.75-14 25.45-14ZM23.15-29.1L23.15-29.1Q19.8-28.2 15.33-24.48 10.85-20.75 7.35-15.38 3.85-10 3.85-5.45L3.85-5.45Q3.85-3.75 4.53-2.78 5.2-1.8 6.35-1.8L6.35-1.8Q7.9-1.8 9.65-3.25 11.4-4.7 12.75-6.65 14.1-8.6 15.63-11.55 17.15-14.5 18-16.43 18.85-18.35 23.15-29.1ZM52.95 0.45L52.95 0.45Q47.85 0.45 45.12-2.43 42.4-5.3 42.4-9.9L42.4-9.9Q42.4-11.55 42.82-13.4 43.25-15.25 44.25-17.25 45.25-19.25 46.75-20.83 48.25-22.4 50.6-23.43 52.95-24.45 55.8-24.45L55.8-24.45Q60.9-24.45 63.65-21.58 66.4-18.7 66.4-14.1L66.4-14.1Q66.4-12.45 65.97-10.58 65.55-8.7 64.5-6.73 63.45-4.75 61.97-3.18 60.5-1.6 58.15-0.58 55.8 0.45 52.95 0.45ZM52.95-1.65L52.95-1.65Q56.3-1.65 58.85-3.58 61.4-5.5 62.6-8.2 63.8-10.9 63.8-13.7L63.8-13.7Q63.8-15.85 63.15-17.68 62.5-19.5 60.65-20.93 58.8-22.35 55.9-22.35L55.9-22.35Q52.55-22.35 49.97-20.43 47.4-18.5 46.2-15.8 45-13.1 45-10.3L45-10.3Q45-8.15 45.65-6.33 46.3-4.5 48.17-3.08 50.05-1.65 52.95-1.65ZM52.65-13.3L52.65-13.3Q51.65-14.2 51.65-14.6L51.65-14.6Q51.65-15.05 52.25-15.43 52.85-15.8 53.4-15.8L53.4-15.8Q53.65-15.8 53.8-15.48 53.95-15.15 54-14.55 54.05-13.95 54.05-13.9L54.05-13.9Q54.5-13.9 54.9-13.8L54.9-13.8Q54.95-13.85 55.12-14.45 55.3-15.05 55.5-15.33 55.7-15.6 55.95-15.6L55.95-15.6Q56.55-15.6 57.15-15.1 57.75-14.6 57.75-14.05L57.75-14.05Q57.75-13.75 56.2-13.05L56.2-13.05Q56.45-12.8 56.5-12.55L56.5-12.55Q57.7-13.15 58-13.15L58-13.15Q58.95-13.15 58.95-12.05L58.95-12.05Q58.95-10.5 57.7-10.5L57.7-10.5Q57.55-10.5 56.45-10.95L56.45-10.95Q56.4-10.8 55.95-10.35L55.95-10.35Q57.1-9.2 57.1-8.8L57.1-8.8Q57.1-8.3 56.57-7.98 56.05-7.65 55.45-7.65L55.45-7.65Q54.9-7.65 54.65-9.8L54.65-9.8Q54.3-9.7 53.95-9.8L53.95-9.8Q53.9-9.75 53.65-9.03 53.4-8.3 53.15-7.95 52.9-7.6 52.65-7.6L52.65-7.6Q52.1-7.6 51.5-8.1 50.9-8.6 50.9-9.15L50.9-9.15Q50.9-9.35 52.45-10.5L52.45-10.5Q52.25-10.7 52.05-11.1L52.05-11.1Q51.8-10.85 50.65-10.85L50.65-10.85Q49.85-10.85 49.85-11.95L49.85-11.95Q49.85-12.9 50.7-12.9L50.7-12.9Q51.85-12.9 52.1-12.7L52.1-12.7Q52.3-13.1 52.65-13.3ZM53.2-12.75L53.2-12.75Q52.8-12.35 52.8-11.8 52.8-11.25 53.22-10.83 53.65-10.4 54.2-10.4 54.75-10.4 55.17-10.83 55.6-11.25 55.6-11.8 55.6-12.35 55.17-12.78 54.75-13.2 54.2-13.2 53.65-13.2 53.2-12.75ZM76-11.7L76-11.7Q76-13.65 77.3-14.8 78.6-15.95 80.5-15.95L80.5-15.95Q81.55-15.95 82.35-15.53 83.15-15.1 83.72-14.4 84.3-13.7 84.57-12.85 84.85-12 84.85-11.1L84.85-11.1Q84.85-9.35 83.72-8.15 82.6-6.95 80.85-6.95L80.85-6.95Q79.95-6.95 79.07-7.28 78.2-7.6 77.52-8.2 76.85-8.8 76.42-9.68 76-10.55 76-11.7ZM96.15-35.15L96.15-35.15Q93.6-35.15 92.17-33.18 90.75-31.2 90.35-28.05 89.95-24.9 89.85-21.1 89.75-17.3 89.42-13.5 89.1-9.7 88.25-6.55 87.4-3.4 85.12-1.43 82.85 0.55 79.15 0.55L79.15 0.55Q75.5 0.55 72.8-2.18 70.1-4.9 70.1-9.25L70.1-9.25Q70.1-16.05 73.62-20.28 77.15-24.5 82.25-24.5L82.25-24.5Q84.95-24.5 87.65-23.25L87.65-23.25Q87.85-26.55 88.22-28.8 88.6-31.05 89.5-33.25 90.4-35.45 92.07-36.58 93.75-37.7 96.2-37.7L96.2-37.7Q98.9-37.7 100.37-35.98 101.85-34.25 101.85-31.9L101.85-31.9Q101.85-29.5 100.4-27.7 98.95-25.9 96.5-25.9L96.5-25.9Q95-25.9 94.05-26.9 93.1-27.9 93.1-29.1L93.1-29.1Q93.1-30.2 93.67-30.83 94.25-31.45 95.05-31.45L95.05-31.45Q95.75-31.45 96.22-30.98 96.7-30.5 96.7-29.65L96.7-29.65Q96.7-28.85 96.15-28L96.15-28Q97.75-28.05 98.65-29.2 99.55-30.35 99.55-31.8L99.55-31.8Q99.55-33.2 98.67-34.18 97.8-35.15 96.15-35.15ZM79.4-1.75L79.4-1.75Q80.75-1.75 81.82-2.1 82.9-2.45 83.7-3.28 84.5-4.1 85.07-4.93 85.65-5.75 86.02-7.25 86.4-8.75 86.65-9.83 86.9-10.9 87.07-12.85 87.25-14.8 87.3-15.98 87.35-17.15 87.45-19.3L87.45-19.3Q87.5-20.1 87.5-20.5L87.5-20.5Q84.85-22.1 82.45-22.1L82.45-22.1Q78.55-22.1 75.62-18.55 72.7-15 72.7-9.5L72.7-9.5Q72.7-6.4 74.72-4.08 76.75-1.75 79.4-1.75ZM77.95-11.5L77.95-11.5Q77.95-10.3 78.65-9.38 79.35-8.45 80.6-8.45L80.6-8.45Q81.75-8.45 82.37-9.2 83-9.95 83-11.25L83-11.25Q83-12.5 82.35-13.4 81.7-14.3 80.4-14.3L80.4-14.3Q79.2-14.3 78.57-13.53 77.95-12.75 77.95-11.5ZM120.49-22.85L120.49-22.85Q120.64-23.45 120.84-23.6 121.04-23.75 121.69-23.75L121.69-23.75Q122.99-23.75 122.99-23.1L122.99-23.1 121.84-18.05 120.54-12.45Q119.84-9.45 118.94-6.25 118.04-3.05 117.07-0.13 116.09 2.8 115.09 5.18 114.09 7.55 113.14 8.9L113.14 8.9Q112.29 10.35 111.29 11.63 110.29 12.9 109.14 13.85 107.99 14.8 106.74 15.35 105.49 15.9 104.09 15.9L104.09 15.9Q102.44 15.9 101.02 15.38 99.59 14.85 98.54 13.85 97.49 12.85 96.92 11.43 96.34 10 96.34 8.25L96.34 8.25Q96.34 6.6 97.27 5.33 98.19 4.05 99.62 3.1 101.04 2.15 102.74 1.5 104.44 0.85 106.02 0.43 107.59 0 108.79-0.23 109.99-0.45 110.44-0.5L110.44-0.5 114.79-1.2Q114.84-1.2 115.99-5.35L115.99-5.35 115.94-5.25Q115.19-4.5 113.99-3.78 112.79-3.05 111.44-2.48 110.09-1.9 108.69-1.55 107.29-1.2 106.14-1.2L106.14-1.2Q101.49-1.2 101.49-5.5L101.49-5.5Q101.49-8.65 103.64-14.75L103.64-14.75Q104.74-17.85 105.27-19.58 105.79-21.3 105.84-21.7L105.84-21.7Q105.84-22.85 104.89-22.85L104.89-22.85Q102.84-22.85 101.39-21.25L101.39-21.25Q101.84-20.7 101.84-19.85L101.84-19.85Q101.84-18.85 101.29-18.18 100.74-17.5 99.94-17.5L99.94-17.5Q99.19-17.5 98.67-18.13 98.14-18.75 98.14-19.7L98.14-19.7Q98.14-20.75 98.77-21.7 99.39-22.65 100.34-23.38 101.29-24.1 102.44-24.55 103.59-25 104.64-25L104.64-25Q107.99-25 107.99-21.8L107.99-21.8Q107.99-20.7 106.09-14.4L106.09-14.4Q104.19-8.1 104.19-5.75L104.19-5.75Q104.19-3.5 106.29-3.5L106.29-3.5Q107.29-3.5 108.72-4 110.14-4.5 111.64-5.25 113.14-6 114.54-6.9 115.94-7.8 116.84-8.55L116.84-8.55Q118.59-15.1 119.49-18.65 120.39-22.2 120.49-22.85ZM113.99 1.65L113.99 1.65Q112.14 1.7 109.79 2.13 107.44 2.55 104.89 3.38 102.34 4.2 100.64 5.7 98.94 7.2 98.94 9.05L98.94 9.05Q98.94 11 100.27 12.25 101.59 13.5 103.39 13.5L103.39 13.5Q105.14 13.5 106.84 12.35 108.54 11.2 109.89 9.3 111.24 7.4 112.22 5.55 113.19 3.7 113.99 1.65ZM153.49 6.85L153.49 6.85Q151.89 6.85 150.49 6.45 149.09 6.05 147.74 5.1 146.39 4.15 145.59 3.48 144.79 2.8 143.32 1.33 141.84-0.15 141.34-0.65L141.34-0.65Q137.89 0.5 133.74 0.5L133.74 0.5Q125.89 0.5 125.69-3.75L125.69-3.75Q125.74-4.95 126.84-5.78 127.94-6.6 129.39-6.93 130.84-7.25 132.49-7.25L132.49-7.25Q137.49-7.25 141.74-3.35L141.74-3.35Q145.94-5.4 148.22-9.38 150.49-13.35 150.49-18.55L150.49-18.55Q150.49-23.8 147.67-27.1 144.84-30.4 139.99-30.4L139.99-30.4Q135.84-30.4 132.67-27.4 129.49-24.4 129.49-18.8L129.49-18.8Q129.49-15.55 130.89-13.3 132.29-11.05 135.39-11.05L135.39-11.05Q137.34-11.05 139.07-12.5 140.79-13.95 140.79-16.3L140.79-16.3Q140.79-18 139.64-18.85L139.64-18.85Q139.44-18.2 138.77-17.73 138.09-17.25 137.34-17.25L137.34-17.25Q136.39-17.25 135.84-17.8 135.29-18.35 135.29-19.1L135.29-19.1Q135.29-20 135.97-20.65 136.64-21.3 137.99-21.3L137.99-21.3Q140.39-21.3 141.64-19.9 142.89-18.5 142.89-16.35L142.89-16.35Q142.89-12.85 140.59-10.95 138.29-9.05 135.19-9.05L135.19-9.05Q130.89-9.05 128.79-11.83 126.69-14.6 126.69-18.65L126.69-18.65Q126.69-22 127.84-24.73 128.99-27.45 130.89-29.13 132.79-30.8 135.12-31.68 137.44-32.55 139.99-32.55L139.99-32.55Q146.19-32.55 149.79-28.48 153.39-24.4 153.39-17.85L153.39-17.85Q153.39-12.45 150.82-8.15 148.24-3.85 143.54-1.6L143.54-1.6Q143.74-1.4 144.49-0.63 145.24 0.15 145.47 0.4 145.69 0.65 146.37 1.3 147.04 1.95 147.39 2.2 147.74 2.45 148.39 2.93 149.04 3.4 149.52 3.6 149.99 3.8 150.62 4.05 151.24 4.3 151.89 4.4 152.54 4.5 153.24 4.5L153.24 4.5Q156.39 4.5 158.77 2.4 161.14 0.3 161.14-3.1L161.14-3.1Q161.14-4.95 160.04-6 158.94-7.05 157.24-7.05L157.24-7.05Q155.84-7.05 154.89-6.25 153.94-5.45 153.94-4.1L153.94-4.1Q153.94-3.1 154.29-2.6L154.29-2.6Q154.54-3.3 155.22-3.75 155.89-4.2 156.64-4.2L156.64-4.2Q157.69-4.2 158.27-3.58 158.84-2.95 158.84-2.1 158.84-1.25 158.22-0.6 157.59 0.05 156.49 0.05L156.49 0.05Q154.44 0.05 153.19-1.07 151.94-2.2 151.94-3.95L151.94-3.95Q151.94-6.1 153.42-7.8 154.89-9.5 157.34-9.5L157.34-9.5Q160.14-9.5 161.94-7.5 163.74-5.5 163.74-2.7L163.74-2.7Q163.74 1.45 160.67 4.15 157.59 6.85 153.49 6.85ZM132.84-4.8L132.84-4.8Q128.54-4.8 128.24-3.15L128.24-3.15Q128.89-1.6 133.29-1.6L133.29-1.6Q136.69-1.6 139.29-2.4L139.29-2.4Q136.19-4.8 132.84-4.8ZM172.19-8.6L172.19-8.6Q174.24-8.6 175.44-7.18 176.64-5.75 176.64-3.85L176.64-3.85Q176.64-2.05 175.54-0.75 174.44 0.55 172.44 0.55L172.44 0.55Q171.54 0.55 170.71 0.23 169.89-0.1 169.24-0.7 168.59-1.3 168.21-2.1 167.84-2.9 167.84-3.8L167.84-3.8Q167.84-4.75 168.21-5.6 168.59-6.45 169.19-7.13 169.79-7.8 170.56-8.2 171.34-8.6 172.19-8.6ZM172.29-1.9L172.29-1.9Q173.24-1.9 173.79-2.53 174.34-3.15 174.34-4.05L174.34-4.05Q174.34-4.9 173.79-5.55 173.24-6.2 172.29-6.2L172.29-6.2Q171.29-6.2 170.74-5.55 170.19-4.9 170.19-4.05 170.19-3.2 170.74-2.55 171.29-1.9 172.29-1.9ZM172.24-19.7L172.24-19.7Q173.09-19.7 173.71-20.28 174.34-20.85 174.34-21.7 174.34-22.55 173.71-23.28 173.09-24 172.19-24L172.19-24Q171.24-24 170.69-23.35 170.14-22.7 170.14-21.95L170.14-21.95Q170.14-21.05 170.74-20.38 171.34-19.7 172.24-19.7ZM167.89-21.9L167.89-21.9Q167.89-23.7 169.06-25.03 170.24-26.35 172.04-26.35L172.04-26.35Q173.94-26.35 175.36-24.85 176.79-23.35 176.79-21.45L176.79-21.45Q176.79-19.9 175.59-18.6 174.39-17.3 172.29-17.3L172.29-17.3Q170.54-17.3 169.21-18.57 167.89-19.85 167.89-21.9ZM212.83-4.85L212.83-4.85Q211.28-5.7 211.28-7.6L211.28-7.6Q211.28-8.55 211.83-9.1 212.38-9.65 213.13-9.65L213.13-9.65Q214.03-9.65 214.76-8.9 215.48-8.15 215.48-6.8L215.48-6.8Q215.48-3.4 211.96-0.85 208.43 1.7 204.78 1.7L204.78 1.7Q200.48 1.7 198.18-0.73 195.88-3.15 195.88-7.05L195.88-7.05Q195.88-10.1 197.86-12.95 199.83-15.8 203.38-17.3L203.38-17.3Q202.43-19.5 202.43-21.1L202.43-21.1Q202.43-26.15 205.53-29.13 208.63-32.1 213.33-32.1L213.33-32.1Q215.78-32.1 217.43-31 219.08-29.9 219.08-27.4L219.08-27.4Q219.08-25.45 217.78-23.98 216.48-22.5 214.28-22.5L214.28-22.5Q213.03-22.5 212.36-23.13 211.68-23.75 211.68-24.55L211.68-24.55Q211.68-25.2 212.06-25.65 212.43-26.1 213.13-26.1L213.13-26.1Q214.23-26.1 215.23-24.65L215.23-24.65Q216.58-25.75 216.58-27.4L216.58-27.4Q216.58-30.1 213.23-30.1L213.23-30.1Q209.78-30.1 207.41-27.48 205.03-24.85 205.03-21.3L205.03-21.3Q205.03-19.95 205.38-18.7L205.38-18.7Q207.38-19.95 210.53-19.95L210.53-19.95Q214.93-19.95 214.93-16.7L214.93-16.7Q214.93-16.1 214.76-15.5 214.58-14.9 214.13-14.2 213.68-13.5 212.71-13.03 211.73-12.55 210.28-12.5L210.28-12.5Q206.68-12.5 204.33-15.3L204.33-15.3Q201.63-14.2 200.13-11.78 198.63-9.35 198.63-6.85L198.63-6.85Q198.63-3.8 200.21-2.15 201.78-0.5 204.78-0.5L204.78-0.5Q207.18-0.5 209.56-1.73 211.93-2.95 212.83-4.85ZM209.83-14.55L209.83-14.55Q211.23-14.65 211.98-15.23 212.73-15.8 212.73-16.5L212.73-16.5Q212.73-17.9 210.78-17.9L210.78-17.9Q208.38-17.9 206.28-16.7L206.28-16.7Q207.63-14.55 209.83-14.55ZM230.13 0.55L230.13 0.55Q226.98 0.55 224.86-1.58 222.73-3.7 222.73-6.8L222.73-6.8Q222.73-9.6 223.86-12.95 224.98-16.3 226.33-18.9 227.68-21.5 228.81-24.83 229.93-28.15 229.93-31L229.93-31Q229.93-33 229.08-34.5 228.23-36 226.43-36L226.43-36Q225.18-36 224.53-35.2 223.88-34.4 223.88-33.45L223.88-33.45Q223.88-32.7 224.23-32.5L224.23-32.5Q224.88-33.3 225.83-33.3L225.83-33.3Q226.53-33.3 226.96-32.77 227.38-32.25 227.38-31.7L227.38-31.7Q227.38-30.75 226.73-30.23 226.08-29.7 225.33-29.7L225.33-29.7Q223.73-29.7 222.78-30.88 221.83-32.05 221.83-33.35L221.83-33.35Q221.83-35.5 223.23-36.85 224.63-38.2 226.53-38.2L226.53-38.2Q229.43-38.2 230.93-35.98 232.43-33.75 232.43-31L232.43-31Q232.43-28.05 231.31-24.65 230.18-21.25 228.86-18.65 227.53-16.05 226.41-12.83 225.28-9.6 225.28-7L225.28-7Q225.28-4.9 226.48-3.28 227.68-1.65 229.83-1.65L229.83-1.65Q232.38-1.65 233.76-3 235.13-4.35 235.13-6.85L235.13-6.85Q235.13-8.05 234.51-8.75 233.88-9.45 233.03-9.45L233.03-9.45Q231.68-9.45 230.83-8L230.83-8Q231.68-7.9 232.23-7.25 232.78-6.6 232.78-5.75L232.78-5.75Q232.78-4.8 232.13-4.15 231.48-3.5 230.53-3.5L230.53-3.5Q229.48-3.5 228.86-4.35 228.23-5.2 228.23-6.3L228.23-6.3Q228.23-8.5 229.83-9.9 231.43-11.3 233.28-11.3L233.28-11.3Q234.98-11.3 236.11-10.08 237.23-8.85 237.23-6.6L237.23-6.6Q237.23-3.05 235.16-1.25 233.08 0.55 230.13 0.55ZM255.13-7.2L255.13-7.2Q255.03-6.4 254.35-5.8 253.68-5.2 252.83-5.2L252.83-5.2Q252.08-5.2 251.55-5.68 251.03-6.15 251.03-7L251.03-7Q251.03-7.9 251.93-8.55 252.83-9.2 254.23-9.2L254.23-9.2Q255.73-9.2 256.58-8.2 257.43-7.2 257.43-5.7L257.43-5.7Q257.43-3 255.4-1.23 253.38 0.55 249.88 0.55L249.88 0.55Q245.68 0.55 242.88-2.1 240.08-4.75 240.08-9.75L240.08-9.75Q240.08-13.3 241.6-16.68 243.13-20.05 246.1-22.33 249.08-24.6 252.73-24.6L252.73-24.6Q256.28-24.6 258.25-22.93 260.23-21.25 260.23-18.85L260.23-18.85Q260.23-15.3 257.03-13.25 253.83-11.2 249.63-11.2L249.63-11.2Q245.78-11.2 243.33-12.85L243.33-12.85Q242.83-11.35 242.83-9.4L242.83-9.4Q242.83-5.8 244.78-3.75 246.73-1.7 250.28-1.7L250.28-1.7Q252.13-1.7 253.8-2.73 255.48-3.75 255.48-5.5L255.48-5.5Q255.48-6.5 255.13-7.2ZM244.03-14.7L244.03-14.7Q245.88-13.4 249.18-13.4L249.18-13.4Q252.58-13.4 255.15-14.88 257.73-16.35 257.73-19.1L257.73-19.1Q257.73-22.35 253.43-22.35L253.43-22.35Q250.08-22.35 247.48-20.1 244.88-17.85 244.03-14.7ZM291.33-16.5L291.33-16.5Q290.23-16.5 289.63-17.18 289.03-17.85 289.03-18.8L289.03-18.8Q289.03-19.7 289.58-20.48 290.13-21.25 291.13-21.45L291.13-21.45Q291.08-21.9 290.63-22.23 290.18-22.55 289.68-22.55L289.68-22.55Q287.78-22.55 286.5-20.85 285.23-19.15 284.6-16.63 283.98-14.1 283.15-11.13 282.33-8.15 281.43-5.63 280.53-3.1 278.63-1.4 276.73 0.3 274.03 0.3L274.03 0.3Q271.08 0.3 269.85-1.1 268.63-2.5 268.63-5.1L268.63-5.1Q268.63-6.6 270.08-12.48 271.53-18.35 271.53-20.35L271.53-20.35Q271.53-22.5 270.03-22.5L270.03-22.5Q268.93-22.5 267.53-21.45 266.13-20.4 265.53-19.3L265.53-19.3Q266.63-18.45 266.63-17.45L266.63-17.45Q266.63-16.6 266.1-16 265.58-15.4 264.83-15.4L264.83-15.4Q264.03-15.4 263.53-16.1 263.03-16.8 263.03-18.05L263.03-18.05Q263.03-20.25 265.33-22.4 267.63-24.55 270.18-24.55L270.18-24.55Q274.03-24.55 274.03-20.4L274.03-20.4Q274.03-18.2 272.6-12.8 271.18-7.4 271.18-5.45L271.18-5.45Q271.18-1.85 273.43-1.85L273.43-1.85Q276.18-1.85 277.85-4.2 279.53-6.55 280.33-9.88 281.13-13.2 281.98-16.55 282.83-19.9 284.63-22.25 286.43-24.6 289.38-24.6L289.38-24.6Q293.53-24.6 293.53-20.15L293.53-20.15Q293.53-18.75 293.03-17.63 292.53-16.5 291.33-16.5ZM306.27-9.65L306.27-9.65Q305.72-8.35 304.57-8.35L304.57-8.35Q303.97-8.35 303.55-8.72 303.12-9.1 303.12-9.65L303.12-9.65Q303.12-10.25 303.77-10.85L303.77-10.85Q302.47-11.4 302.47-12.3L302.47-12.3Q302.47-12.85 302.95-13.25 303.42-13.65 304.22-13.65L304.22-13.65Q304.57-13.65 304.77-13.6L304.77-13.6Q304.87-14.55 305.32-15.1 305.77-15.65 306.27-15.65L306.27-15.65Q306.82-15.65 307.27-15.1 307.72-14.55 307.77-13.6L307.77-13.6Q307.92-13.65 308.37-13.65L308.37-13.65Q310.12-13.65 310.12-12.45L310.12-12.45Q310.12-11.4 308.82-10.85L308.82-10.85Q309.47-10.25 309.47-9.65L309.47-9.65Q309.47-9.1 309.05-8.72 308.62-8.35 308.02-8.35L308.02-8.35Q306.82-8.35 306.27-9.65ZM306.22-10.5L306.22-10.5Q306.42-10.15 307.07-9.75 307.72-9.35 308.02-9.35L308.02-9.35Q308.47-9.35 308.47-9.65L308.47-9.65Q308.47-10.5 307.22-11.3L307.22-11.3Q309.12-12.05 309.12-12.3L309.12-12.3Q309.12-12.65 308.37-12.65L308.37-12.65 306.82-12.6Q306.67-14.65 306.27-14.65L306.27-14.65Q305.92-14.65 305.67-12.6L305.67-12.6Q305.42-12.6 305.17-12.63 304.92-12.65 304.72-12.65L304.72-12.65Q303.47-12.65 303.47-12.3L303.47-12.3Q303.47-12.05 305.37-11.3L305.37-11.3Q304.12-10.2 304.12-9.65L304.12-9.65Q304.12-9.35 304.57-9.35L304.57-9.35Q305.07-9.35 305.57-9.73 306.07-10.1 306.22-10.5ZM305.22 0.55L305.22 0.55Q301.07 0.55 298.82-2.35 296.57-5.25 296.57-9.95L296.57-9.95Q296.57-12.1 297.17-14.5 297.77-16.9 298.97-19.28 300.17-21.65 302.37-23.18 304.57-24.7 307.42-24.7L307.42-24.7Q311.57-24.7 313.82-21.8 316.07-18.9 316.07-14.2L316.07-14.2Q316.07-11.9 315.32-9.25L315.32-9.25Q315.07-7.55 315-5.83 314.92-4.1 315.95-2.8 316.97-1.5 319.07-1.5L319.07-1.5Q321.22-1.5 322.5-2.9 323.77-4.3 323.77-6.15L323.77-6.15Q323.77-7.3 323.1-8 322.42-8.7 321.52-8.7L321.52-8.7Q320.07-8.7 319.47-7.2L319.47-7.2Q320.32-7.2 320.9-6.6 321.47-6 321.47-5.15L321.47-5.15Q321.47-4.15 320.92-3.6 320.37-3.05 319.62-3.05L319.62-3.05Q318.62-3.05 317.92-3.8 317.22-4.55 317.22-5.95L317.22-5.95Q317.22-7.7 318.37-9.13 319.52-10.55 321.42-10.55L321.42-10.55Q323.42-10.55 324.75-9.3 326.07-8.05 326.07-5.8L326.07-5.8Q326.07-3 323.92-1.2 321.77 0.6 318.87 0.6L318.87 0.6Q313.92 0.6 312.92-3.7L312.92-3.7Q309.97 0.55 305.22 0.55ZM305.22-1.8L305.22-1.8Q308.97-1.8 311.3-5.58 313.62-9.35 313.62-13.8L313.62-13.8Q313.62-15.3 313.32-16.73 313.02-18.15 312.35-19.45 311.67-20.75 310.42-21.55 309.17-22.35 307.47-22.35L307.47-22.35Q303.67-22.35 301.32-18.57 298.97-14.8 298.97-10.35L298.97-10.35Q298.97-6.95 300.47-4.38 301.97-1.8 305.22-1.8ZM336.82-21.5L336.82-21.5 335.87-21.5Q331.87-14.65 331.87-8.25 331.87-1.85 335.87-1.85L335.87-1.85Q337.37-1.85 338.92-2.58 340.47-3.3 340.92-4.35L340.92-4.35Q339.77-5.2 339.77-6.45L339.77-6.45Q339.77-7.55 340.6-8.4 341.42-9.25 342.52-9.25L342.52-9.25Q344.62-9.25 344.62-7.2L344.62-7.2Q344.62-4.2 341.7-1.83 338.77 0.55 335.57 0.55L335.57 0.55Q332.22 0.55 330.75-1.88 329.27-4.3 329.27-8.05L329.27-8.05Q329.27-14.7 333.22-21.9L333.22-21.9Q330.97-22.45 329.57-23.6 328.17-24.75 328.17-26.2L328.17-26.2Q328.17-27.05 328.65-27.63 329.12-28.2 330.02-28.2L330.02-28.2Q330.97-28.2 331.72-27.53 332.47-26.85 332.47-25.7L332.47-25.7Q332.47-25.25 332.27-24.5L332.27-24.5Q333.37-24.05 334.37-23.85L334.37-23.85Q337.77-29.75 337.92-30.05L337.92-30.05Q337.22-30.5 336.72-31.25 336.22-32 336.22-32.65L336.22-32.65Q336.22-33.75 336.97-34.4 337.72-35.05 338.67-35.05 339.62-35.05 340.27-34.45 340.92-33.85 340.92-32.75L340.92-32.75Q340.92-30.1 337.12-23.6L337.12-23.6Q338.97-23.65 341.37-24.5L341.37-24.5Q341.17-25.25 341.17-25.7L341.17-25.7Q341.17-26.85 341.92-27.53 342.67-28.2 343.62-28.2L343.62-28.2Q344.52-28.2 345-27.63 345.47-27.05 345.47-26.2L345.47-26.2Q345.47-24.15 342.95-22.83 340.42-21.5 336.82-21.5ZM363.47-7.2L363.47-7.2Q363.37-6.4 362.69-5.8 362.02-5.2 361.17-5.2L361.17-5.2Q360.42-5.2 359.89-5.68 359.37-6.15 359.37-7L359.37-7Q359.37-7.9 360.27-8.55 361.17-9.2 362.57-9.2L362.57-9.2Q364.07-9.2 364.92-8.2 365.77-7.2 365.77-5.7L365.77-5.7Q365.77-3 363.74-1.23 361.72 0.55 358.22 0.55L358.22 0.55Q354.02 0.55 351.22-2.1 348.42-4.75 348.42-9.75L348.42-9.75Q348.42-13.3 349.94-16.68 351.47-20.05 354.44-22.33 357.42-24.6 361.07-24.6L361.07-24.6Q364.62-24.6 366.59-22.93 368.57-21.25 368.57-18.85L368.57-18.85Q368.57-15.3 365.37-13.25 362.17-11.2 357.97-11.2L357.97-11.2Q354.12-11.2 351.67-12.85L351.67-12.85Q351.17-11.35 351.17-9.4L351.17-9.4Q351.17-5.8 353.12-3.75 355.07-1.7 358.62-1.7L358.62-1.7Q360.47-1.7 362.14-2.73 363.82-3.75 363.82-5.5L363.82-5.5Q363.82-6.5 363.47-7.2ZM352.37-14.7L352.37-14.7Q354.22-13.4 357.52-13.4L357.52-13.4Q360.92-13.4 363.49-14.88 366.07-16.35 366.07-19.1L366.07-19.1Q366.07-22.35 361.77-22.35L361.77-22.35Q358.42-22.35 355.82-20.1 353.22-17.85 352.37-14.7ZM400.96-1.05L400.96-1.05Q402.66-1.05 404.14-2.08 405.61-3.1 406.81-5.05 408.01-7 408.94-9.18 409.86-11.35 410.76-14.2L410.76-14.2Q409.31-13 407.21-12.2 405.11-11.4 403.31-11.4L403.31-11.4Q401.06-11.4 399.64-12.55 398.21-13.7 398.21-16.25L398.21-16.25Q398.21-18.3 399.49-22.45 400.76-26.6 400.76-27.75L400.76-27.75Q400.76-30.8 397.71-30.8L397.71-30.8Q394.36-30.8 391.64-28.25 388.91-25.7 388.91-21.8L388.91-21.8Q388.91-20.7 389.61-20.05 390.31-19.4 391.26-19.4L391.26-19.4Q392.26-19.4 393.36-20.1L393.36-20.1Q392.71-20.9 392.71-21.95L392.71-21.95Q392.71-22.8 393.16-23.28 393.61-23.75 394.31-23.75L394.31-23.75Q395.06-23.75 395.64-23.23 396.21-22.7 396.21-21.7L396.21-21.7Q396.21-19.95 394.51-18.73 392.81-17.5 391.06-17.5L391.06-17.5Q388.91-17.5 387.79-18.85 386.66-20.2 386.66-22.2L386.66-22.2Q386.66-26.4 389.81-29.68 392.96-32.95 397.56-32.95L397.56-32.95Q400.01-32.95 401.74-31.83 403.46-30.7 403.46-28.3L403.46-28.3Q403.46-26.7 402.16-22.73 400.86-18.75 400.86-16.9L400.86-16.9Q400.86-13.65 403.86-13.65L403.86-13.65Q405.71-13.65 408.04-14.83 410.36-16 411.71-17.45L411.71-17.45Q412.01-18.6 412.76-21.33 413.51-24.05 413.89-25.38 414.26-26.7 414.84-28.4 415.41-30.1 415.91-31.1L415.91-31.1Q416.26-31.8 417.11-31.8L417.11-31.8Q417.66-31.8 418.06-31.48 418.46-31.15 418.46-30.65L418.46-30.65Q418.46-30.5 418.21-29.85L418.21-29.85Q417.11-27.45 415.99-23.75 414.86-20.05 414.06-16.88 413.26-13.7 412.04-10.3 410.81-6.9 409.49-4.53 408.16-2.15 406.06-0.6 403.96 0.95 401.31 0.95L401.31 0.95Q398.31 0.95 396.74-0.45 395.16-1.85 395.16-4.25L395.16-4.25Q395.16-5.75 395.86-6.8 396.56-7.85 398.01-7.85L398.01-7.85Q398.91-7.85 399.49-7.28 400.06-6.7 400.06-5.6L400.06-5.6Q400.06-4.65 399.31-3.98 398.56-3.3 397.41-3.3L397.41-3.3Q397.91-1.1 400.96-1.05ZM430.26 0.45L430.26 0.45Q425.16 0.45 422.44-2.43 419.71-5.3 419.71-9.9L419.71-9.9Q419.71-11.55 420.14-13.4 420.56-15.25 421.56-17.25 422.56-19.25 424.06-20.83 425.56-22.4 427.91-23.43 430.26-24.45 433.11-24.45L433.11-24.45Q438.21-24.45 440.96-21.58 443.71-18.7 443.71-14.1L443.71-14.1Q443.71-12.45 443.29-10.58 442.86-8.7 441.81-6.73 440.76-4.75 439.29-3.18 437.81-1.6 435.46-0.58 433.11 0.45 430.26 0.45ZM430.26-1.65L430.26-1.65Q433.61-1.65 436.16-3.58 438.71-5.5 439.91-8.2 441.11-10.9 441.11-13.7L441.11-13.7Q441.11-15.85 440.46-17.68 439.81-19.5 437.96-20.93 436.11-22.35 433.21-22.35L433.21-22.35Q429.86-22.35 427.29-20.43 424.71-18.5 423.51-15.8 422.31-13.1 422.31-10.3L422.31-10.3Q422.31-8.15 422.96-6.33 423.61-4.5 425.49-3.08 427.36-1.65 430.26-1.65ZM429.96-13.3L429.96-13.3Q428.96-14.2 428.96-14.6L428.96-14.6Q428.96-15.05 429.56-15.43 430.16-15.8 430.71-15.8L430.71-15.8Q430.96-15.8 431.11-15.48 431.26-15.15 431.31-14.55 431.36-13.95 431.36-13.9L431.36-13.9Q431.81-13.9 432.21-13.8L432.21-13.8Q432.26-13.85 432.44-14.45 432.61-15.05 432.81-15.33 433.01-15.6 433.26-15.6L433.26-15.6Q433.86-15.6 434.46-15.1 435.06-14.6 435.06-14.05L435.06-14.05Q435.06-13.75 433.51-13.05L433.51-13.05Q433.76-12.8 433.81-12.55L433.81-12.55Q435.01-13.15 435.31-13.15L435.31-13.15Q436.26-13.15 436.26-12.05L436.26-12.05Q436.26-10.5 435.01-10.5L435.01-10.5Q434.86-10.5 433.76-10.95L433.76-10.95Q433.71-10.8 433.26-10.35L433.26-10.35Q434.41-9.2 434.41-8.8L434.41-8.8Q434.41-8.3 433.89-7.98 433.36-7.65 432.76-7.65L432.76-7.65Q432.21-7.65 431.96-9.8L431.96-9.8Q431.61-9.7 431.26-9.8L431.26-9.8Q431.21-9.75 430.96-9.03 430.71-8.3 430.46-7.95 430.21-7.6 429.96-7.6L429.96-7.6Q429.41-7.6 428.81-8.1 428.21-8.6 428.21-9.15L428.21-9.15Q428.21-9.35 429.76-10.5L429.76-10.5Q429.56-10.7 429.36-11.1L429.36-11.1Q429.11-10.85 427.96-10.85L427.96-10.85Q427.16-10.85 427.16-11.95L427.16-11.95Q427.16-12.9 428.01-12.9L428.01-12.9Q429.16-12.9 429.41-12.7L429.41-12.7Q429.61-13.1 429.96-13.3ZM430.51-12.75L430.51-12.75Q430.11-12.35 430.11-11.8 430.11-11.25 430.54-10.83 430.96-10.4 431.51-10.4 432.06-10.4 432.49-10.83 432.91-11.25 432.91-11.8 432.91-12.35 432.49-12.78 432.06-13.2 431.51-13.2 430.96-13.2 430.51-12.75ZM452.61-22.75L452.61-22.75Q450.86-22.75 449.48-21.43 448.11-20.1 448.11-18.45L448.11-18.45Q448.11-17.2 448.86-16.2L448.86-16.2Q449.06-17 449.76-17.73 450.46-18.45 451.46-18.45L451.46-18.45Q452.26-18.45 452.76-17.78 453.26-17.1 453.26-16.3L453.26-16.3Q453.26-15.25 452.43-14.38 451.61-13.5 450.06-13.5L450.06-13.5Q448.36-13.5 447.23-14.98 446.11-16.45 446.11-18.55L446.11-18.55Q446.11-21.4 447.93-23.13 449.76-24.85 452.61-24.85L452.61-24.85Q455.26-24.85 456.68-23.25 458.11-21.65 458.11-19.15L458.11-19.15Q458.11-16.75 455.91-12.1 453.71-7.45 453.71-4.95L453.71-4.95Q453.71-2.05 456.56-2.05L456.56-2.05Q458.76-2.05 462.13-4.83 465.51-7.6 466.96-10.5L466.96-10.5Q467.31-11.6 468.86-16.45 470.41-21.3 470.51-23.8L470.51-23.8Q470.51-24.55 471.96-24.55L471.96-24.55Q473.01-24.55 473.01-24.05L473.01-24.05Q473.01-21.3 470.73-14.43 468.46-7.55 468.46-5.4L468.46-5.4Q468.46-1.55 471.41-1.55L471.41-1.55Q473.16-1.55 474.53-2.88 475.91-4.2 475.91-5.85L475.91-5.85Q475.91-7.1 475.16-8.1L475.16-8.1Q474.96-7.3 474.26-6.58 473.56-5.85 472.56-5.85L472.56-5.85Q471.76-5.85 471.26-6.53 470.76-7.2 470.76-8L470.76-8Q470.76-9.05 471.58-9.93 472.41-10.8 473.96-10.8L473.96-10.8Q475.66-10.8 476.78-9.33 477.91-7.85 477.91-5.75L477.91-5.75Q477.91-2.9 476.08-1.18 474.26 0.55 471.41 0.55L471.41 0.55Q468.76 0.55 467.33-1.05 465.91-2.65 465.91-5.15L465.91-5.15 465.91-5.95Q464.56-3.8 461.53-1.63 458.51 0.55 456.36 0.55L456.36 0.55Q451.21 0.55 451.21-4.7L451.21-4.7Q451.21-7.45 453.38-12.1 455.56-16.75 455.56-18.9L455.56-18.9Q455.56-22.75 452.61-22.75ZM483.06-20L483.06-20Q484.26-20 484.96-19.35 485.66-18.7 485.66-17.85L485.66-17.85Q485.66-17.2 485.26-16.78 484.86-16.35 484.16-16.35L484.16-16.35Q482.81-16.35 482.06-17.32 481.31-18.3 481.31-20.05L481.31-20.05Q481.31-22.05 482.38-23.35 483.46-24.65 485.51-24.65L485.51-24.65Q486.76-24.65 488.46-23.58 490.16-22.5 491.01-22.5L491.01-22.5Q492.11-22.5 493.81-23.53 495.51-24.55 496.36-24.65L496.36-24.65Q497.26-24.65 497.76-24.23 498.26-23.8 498.26-23.1L498.26-23.1Q498.26-21.35 496.91-19.03 495.56-16.7 493.91-14.7 492.26-12.7 490.63-9.75 489.01-6.8 489.01-4.9L489.01-4.9Q489.01-1.65 491.86-1.65L491.86-1.65Q493.61-1.65 494.86-2.7L494.86-2.7Q494.26-2.9 493.76-3.7 493.26-4.5 493.26-5.2L493.26-5.2Q493.26-6.15 493.83-6.88 494.41-7.6 495.36-7.6 496.31-7.6 496.96-6.9 497.61-6.2 497.61-5.25L497.61-5.25Q497.61-2.6 495.68-1.03 493.76 0.55 491.46 0.55L491.46 0.55Q489.21 0.55 487.86-0.95 486.51-2.45 486.41-4.7L486.41-4.7Q486.41-7.1 487.91-9.95 489.41-12.8 492.28-16.73 495.16-20.65 495.96-21.95L495.96-21.95Q493.51-20 491.01-20L491.01-20Q489.31-20 487.36-21.13 485.41-22.25 484.86-22.25L484.86-22.25Q483.26-22.25 483.06-20ZM529.5-11.25L529.5-11.25Q529.5-9.9 528.68-9.1 527.85-8.3 526.85-8.3L526.85-8.3Q526.05-8.3 525.43-8.78 524.8-9.25 524.8-10.1 524.8-10.95 525.33-11.68 525.85-12.4 526.55-12.75L526.55-12.75Q525.5-13.3 524.25-13.3L524.25-13.3Q522.15-13.3 520.63-11.68 519.1-10.05 519.1-7.8L519.1-7.8Q519.1-4.7 521.1-3.1 523.1-1.5 526.15-1.5L526.15-1.5Q529.9-1.5 532.2-3.15 534.5-4.8 534.5-8.3L534.5-8.3Q534.5-10.6 532.98-12.33 531.45-14.05 529.3-15.2 527.15-16.35 525-17.55 522.85-18.75 521.33-20.65 519.8-22.55 519.8-25.05L519.8-25.05Q519.8-28.7 522.43-30.53 525.05-32.35 529-32.35L529-32.35Q532.4-32.35 534.77-30.78 537.15-29.2 537.15-25.9L537.15-25.9Q537.15-23.6 535.73-21.8 534.3-20 531.85-20L531.85-20Q530.6-20 529.7-20.63 528.8-21.25 528.8-22.35L528.8-22.35Q528.8-23.15 529.38-23.63 529.95-24.1 530.75-24.1L530.75-24.1Q531.4-24.1 532.18-23.55 532.95-23 533.4-22.2L533.4-22.2Q534.75-23.85 534.75-25.6L534.75-25.6Q534.75-27.8 533.05-29.03 531.35-30.25 529.05-30.25L529.05-30.25Q526.4-30.25 524.4-28.85 522.4-27.45 522.4-25.05L522.4-25.05Q522.4-23.3 523.93-21.8 525.45-20.3 527.63-19.1 529.8-17.9 531.98-16.6 534.15-15.3 535.68-13.25 537.2-11.2 537.2-8.6L537.2-8.6Q537.2-3.95 534.35-1.65 531.5 0.65 526.6 0.65L526.6 0.65Q522.35 0.65 519.5-1.43 516.65-3.5 516.65-7.75L516.65-7.75Q516.65-11.05 518.73-13.15 520.8-15.25 524.55-15.25L524.55-15.25Q526.35-15.25 527.93-14.23 529.5-13.2 529.5-11.25ZM553.5-8.35L553.5-8.35Q553.5-9.4 554.32-10.13 555.15-10.85 556.45-10.85L556.45-10.85Q560.1-10.85 560.1-6.3L560.1-6.3Q560.1-3.6 557.8-1.53 555.5 0.55 551.1 0.55L551.1 0.55Q546.4 0.55 543.85-2.3 541.3-5.15 541.3-9.7L541.3-9.7Q541.3-15.75 544.47-20.23 547.65-24.7 553.5-24.7L553.5-24.7Q556.75-24.7 558.6-23 560.45-21.3 560.45-19L560.45-19Q560.45-16.95 559.15-15.8 557.85-14.65 556.1-14.65L556.1-14.65Q554.9-14.65 554.07-15.23 553.25-15.8 553.25-16.85L553.25-16.85Q553.25-17.45 553.82-17.98 554.4-18.5 555.35-18.5L555.35-18.5Q556.85-18.5 557.55-16.95L557.55-16.95Q558.35-17.8 558.35-19L558.35-19Q558.35-20.4 557.07-21.45 555.8-22.5 553.8-22.5L553.8-22.5Q549.6-22.5 546.82-18.6 544.05-14.7 544.05-10.1L544.05-10.1Q544.05-6.7 546-4.13 547.95-1.55 551.5-1.55L551.5-1.55Q554.1-1.55 556.15-2.88 558.2-4.2 558.2-6.7L558.2-6.7Q558.2-7.35 558-8L558-8Q557.5-6.3 555.85-6.3L555.85-6.3Q554.95-6.3 554.22-6.9 553.5-7.5 553.5-8.35ZM573.99 0.45L573.99 0.45Q568.89 0.45 566.17-2.43 563.44-5.3 563.44-9.9L563.44-9.9Q563.44-11.55 563.87-13.4 564.29-15.25 565.29-17.25 566.29-19.25 567.79-20.83 569.29-22.4 571.64-23.43 573.99-24.45 576.84-24.45L576.84-24.45Q581.94-24.45 584.69-21.58 587.44-18.7 587.44-14.1L587.44-14.1Q587.44-12.45 587.02-10.58 586.59-8.7 585.54-6.73 584.49-4.75 583.02-3.18 581.54-1.6 579.19-0.58 576.84 0.45 573.99 0.45ZM573.99-1.65L573.99-1.65Q577.34-1.65 579.89-3.58 582.44-5.5 583.64-8.2 584.84-10.9 584.84-13.7L584.84-13.7Q584.84-15.85 584.19-17.68 583.54-19.5 581.69-20.93 579.84-22.35 576.94-22.35L576.94-22.35Q573.59-22.35 571.02-20.43 568.44-18.5 567.24-15.8 566.04-13.1 566.04-10.3L566.04-10.3Q566.04-8.15 566.69-6.33 567.34-4.5 569.22-3.08 571.09-1.65 573.99-1.65ZM573.69-13.3L573.69-13.3Q572.69-14.2 572.69-14.6L572.69-14.6Q572.69-15.05 573.29-15.43 573.89-15.8 574.44-15.8L574.44-15.8Q574.69-15.8 574.84-15.48 574.99-15.15 575.04-14.55 575.09-13.95 575.09-13.9L575.09-13.9Q575.54-13.9 575.94-13.8L575.94-13.8Q575.99-13.85 576.17-14.45 576.34-15.05 576.54-15.33 576.74-15.6 576.99-15.6L576.99-15.6Q577.59-15.6 578.19-15.1 578.79-14.6 578.79-14.05L578.79-14.05Q578.79-13.75 577.24-13.05L577.24-13.05Q577.49-12.8 577.54-12.55L577.54-12.55Q578.74-13.15 579.04-13.15L579.04-13.15Q579.99-13.15 579.99-12.05L579.99-12.05Q579.99-10.5 578.74-10.5L578.74-10.5Q578.59-10.5 577.49-10.95L577.49-10.95Q577.44-10.8 576.99-10.35L576.99-10.35Q578.14-9.2 578.14-8.8L578.14-8.8Q578.14-8.3 577.62-7.98 577.09-7.65 576.49-7.65L576.49-7.65Q575.94-7.65 575.69-9.8L575.69-9.8Q575.34-9.7 574.99-9.8L574.99-9.8Q574.94-9.75 574.69-9.03 574.44-8.3 574.19-7.95 573.94-7.6 573.69-7.6L573.69-7.6Q573.14-7.6 572.54-8.1 571.94-8.6 571.94-9.15L571.94-9.15Q571.94-9.35 573.49-10.5L573.49-10.5Q573.29-10.7 573.09-11.1L573.09-11.1Q572.84-10.85 571.69-10.85L571.69-10.85Q570.89-10.85 570.89-11.95L570.89-11.95Q570.89-12.9 571.74-12.9L571.74-12.9Q572.89-12.9 573.14-12.7L573.14-12.7Q573.34-13.1 573.69-13.3ZM574.24-12.75L574.24-12.75Q573.84-12.35 573.84-11.8 573.84-11.25 574.27-10.83 574.69-10.4 575.24-10.4 575.79-10.4 576.22-10.83 576.64-11.25 576.64-11.8 576.64-12.35 576.22-12.78 575.79-13.2 575.24-13.2 574.69-13.2 574.24-12.75ZM592.59-20L592.59-20Q593.79-20 594.49-19.35 595.19-18.7 595.19-17.85L595.19-17.85Q595.19-17.2 594.79-16.78 594.39-16.35 593.69-16.35L593.69-16.35Q592.34-16.35 591.59-17.32 590.84-18.3 590.84-20.05L590.84-20.05Q590.84-22.05 591.92-23.35 592.99-24.65 595.04-24.65L595.04-24.65Q596.29-24.65 597.99-23.58 599.69-22.5 600.54-22.5L600.54-22.5Q601.64-22.5 603.34-23.53 605.04-24.55 605.89-24.65L605.89-24.65Q606.79-24.65 607.29-24.23 607.79-23.8 607.79-23.1L607.79-23.1Q607.79-21.35 606.44-19.03 605.09-16.7 603.44-14.7 601.79-12.7 600.17-9.75 598.54-6.8 598.54-4.9L598.54-4.9Q598.54-1.65 601.39-1.65L601.39-1.65Q603.14-1.65 604.39-2.7L604.39-2.7Q603.79-2.9 603.29-3.7 602.79-4.5 602.79-5.2L602.79-5.2Q602.79-6.15 603.37-6.88 603.94-7.6 604.89-7.6 605.84-7.6 606.49-6.9 607.14-6.2 607.14-5.25L607.14-5.25Q607.14-2.6 605.22-1.03 603.29 0.55 600.99 0.55L600.99 0.55Q598.74 0.55 597.39-0.95 596.04-2.45 595.94-4.7L595.94-4.7Q595.94-7.1 597.44-9.95 598.94-12.8 601.82-16.73 604.69-20.65 605.49-21.95L605.49-21.95Q603.04-20 600.54-20L600.54-20Q598.84-20 596.89-21.13 594.94-22.25 594.39-22.25L594.39-22.25Q592.79-22.25 592.59-20ZM625.69-7.2L625.69-7.2Q625.59-6.4 624.91-5.8 624.24-5.2 623.39-5.2L623.39-5.2Q622.64-5.2 622.11-5.68 621.59-6.15 621.59-7L621.59-7Q621.59-7.9 622.49-8.55 623.39-9.2 624.79-9.2L624.79-9.2Q626.29-9.2 627.14-8.2 627.99-7.2 627.99-5.7L627.99-5.7Q627.99-3 625.96-1.23 623.94 0.55 620.44 0.55L620.44 0.55Q616.24 0.55 613.44-2.1 610.64-4.75 610.64-9.75L610.64-9.75Q610.64-13.3 612.16-16.68 613.69-20.05 616.66-22.33 619.64-24.6 623.29-24.6L623.29-24.6Q626.84-24.6 628.81-22.93 630.79-21.25 630.79-18.85L630.79-18.85Q630.79-15.3 627.59-13.25 624.39-11.2 620.19-11.2L620.19-11.2Q616.34-11.2 613.89-12.85L613.89-12.85Q613.39-11.35 613.39-9.4L613.39-9.4Q613.39-5.8 615.34-3.75 617.29-1.7 620.84-1.7L620.84-1.7Q622.69-1.7 624.36-2.73 626.04-3.75 626.04-5.5L626.04-5.5Q626.04-6.5 625.69-7.2ZM614.59-14.7L614.59-14.7Q616.44-13.4 619.74-13.4L619.74-13.4Q623.14-13.4 625.71-14.88 628.29-16.35 628.29-19.1L628.29-19.1Q628.29-22.35 623.99-22.35L623.99-22.35Q620.64-22.35 618.04-20.1 615.44-17.85 614.59-14.7ZM637.39 10.05L637.39 10.05Q637.09 10.15 636.99 10.15L636.99 10.15Q636.49 10.15 636.01 9.75 635.54 9.35 635.54 8.9L635.54 8.9Q635.54 8.5 635.84 8.35L635.84 8.35Q636.89 7.7 637.31 7.43 637.74 7.15 638.79 6.43 639.84 5.7 640.34 5.15 640.84 4.6 641.51 3.78 642.19 2.95 642.46 2.05 642.74 1.15 642.74 0.2L642.74 0.2Q642.74-1.15 641.91-1.93 641.09-2.7 639.89-2.7L639.89-2.7Q638.64-2.7 637.69-1.9L637.69-1.9Q639.99-1.3 639.99 0.6L639.99 0.6Q639.99 1.4 639.41 1.98 638.84 2.55 637.99 2.55L637.99 2.55Q636.84 2.55 635.96 1.6 635.09 0.65 635.09-0.75L635.09-0.75Q635.09-2.75 636.61-3.85 638.14-4.95 639.69-4.95L639.69-4.95Q642.14-4.95 643.64-3.35 645.14-1.75 645.14 0.3L645.14 0.3Q645.14 3.65 643.09 5.9 641.04 8.15 637.39 10.05ZM681.18-4.85L681.18-4.85Q679.63-5.7 679.63-7.6L679.63-7.6Q679.63-8.55 680.18-9.1 680.73-9.65 681.48-9.65L681.48-9.65Q682.38-9.65 683.11-8.9 683.83-8.15 683.83-6.8L683.83-6.8Q683.83-3.4 680.31-0.85 676.78 1.7 673.13 1.7L673.13 1.7Q668.83 1.7 666.53-0.73 664.23-3.15 664.23-7.05L664.23-7.05Q664.23-10.1 666.21-12.95 668.18-15.8 671.73-17.3L671.73-17.3Q670.78-19.5 670.78-21.1L670.78-21.1Q670.78-26.15 673.88-29.13 676.98-32.1 681.68-32.1L681.68-32.1Q684.13-32.1 685.78-31 687.43-29.9 687.43-27.4L687.43-27.4Q687.43-25.45 686.13-23.98 684.83-22.5 682.63-22.5L682.63-22.5Q681.38-22.5 680.71-23.13 680.03-23.75 680.03-24.55L680.03-24.55Q680.03-25.2 680.41-25.65 680.78-26.1 681.48-26.1L681.48-26.1Q682.58-26.1 683.58-24.65L683.58-24.65Q684.93-25.75 684.93-27.4L684.93-27.4Q684.93-30.1 681.58-30.1L681.58-30.1Q678.13-30.1 675.76-27.48 673.38-24.85 673.38-21.3L673.38-21.3Q673.38-19.95 673.73-18.7L673.73-18.7Q675.73-19.95 678.88-19.95L678.88-19.95Q683.28-19.95 683.28-16.7L683.28-16.7Q683.28-16.1 683.11-15.5 682.93-14.9 682.48-14.2 682.03-13.5 681.06-13.03 680.08-12.55 678.63-12.5L678.63-12.5Q675.03-12.5 672.68-15.3L672.68-15.3Q669.98-14.2 668.48-11.78 666.98-9.35 666.98-6.85L666.98-6.85Q666.98-3.8 668.56-2.15 670.13-0.5 673.13-0.5L673.13-0.5Q675.53-0.5 677.91-1.73 680.28-2.95 681.18-4.85ZM678.18-14.55L678.18-14.55Q679.58-14.65 680.33-15.23 681.08-15.8 681.08-16.5L681.08-16.5Q681.08-17.9 679.13-17.9L679.13-17.9Q676.73-17.9 674.63-16.7L674.63-16.7Q675.98-14.55 678.18-14.55ZM698.48 0.55L698.48 0.55Q695.33 0.55 693.2-1.58 691.08-3.7 691.08-6.8L691.08-6.8Q691.08-9.6 692.2-12.95 693.33-16.3 694.68-18.9 696.03-21.5 697.15-24.83 698.28-28.15 698.28-31L698.28-31Q698.28-33 697.43-34.5 696.58-36 694.78-36L694.78-36Q693.53-36 692.88-35.2 692.23-34.4 692.23-33.45L692.23-33.45Q692.23-32.7 692.58-32.5L692.58-32.5Q693.23-33.3 694.18-33.3L694.18-33.3Q694.88-33.3 695.3-32.77 695.73-32.25 695.73-31.7L695.73-31.7Q695.73-30.75 695.08-30.23 694.43-29.7 693.68-29.7L693.68-29.7Q692.08-29.7 691.13-30.88 690.18-32.05 690.18-33.35L690.18-33.35Q690.18-35.5 691.58-36.85 692.98-38.2 694.88-38.2L694.88-38.2Q697.78-38.2 699.28-35.98 700.78-33.75 700.78-31L700.78-31Q700.78-28.05 699.65-24.65 698.53-21.25 697.2-18.65 695.88-16.05 694.75-12.83 693.63-9.6 693.63-7L693.63-7Q693.63-4.9 694.83-3.28 696.03-1.65 698.18-1.65L698.18-1.65Q700.73-1.65 702.1-3 703.48-4.35 703.48-6.85L703.48-6.85Q703.48-8.05 702.85-8.75 702.23-9.45 701.38-9.45L701.38-9.45Q700.03-9.45 699.18-8L699.18-8Q700.03-7.9 700.58-7.25 701.13-6.6 701.13-5.75L701.13-5.75Q701.13-4.8 700.48-4.15 699.83-3.5 698.88-3.5L698.88-3.5Q697.83-3.5 697.2-4.35 696.58-5.2 696.58-6.3L696.58-6.3Q696.58-8.5 698.18-9.9 699.78-11.3 701.63-11.3L701.63-11.3Q703.33-11.3 704.45-10.08 705.58-8.85 705.58-6.6L705.58-6.6Q705.58-3.05 703.5-1.25 701.43 0.55 698.48 0.55ZM723.48-7.2L723.48-7.2Q723.38-6.4 722.7-5.8 722.03-5.2 721.18-5.2L721.18-5.2Q720.43-5.2 719.9-5.68 719.38-6.15 719.38-7L719.38-7Q719.38-7.9 720.28-8.55 721.18-9.2 722.58-9.2L722.58-9.2Q724.08-9.2 724.93-8.2 725.78-7.2 725.78-5.7L725.78-5.7Q725.78-3 723.75-1.23 721.73 0.55 718.23 0.55L718.23 0.55Q714.03 0.55 711.23-2.1 708.43-4.75 708.43-9.75L708.43-9.75Q708.43-13.3 709.95-16.68 711.48-20.05 714.45-22.33 717.43-24.6 721.08-24.6L721.08-24.6Q724.63-24.6 726.6-22.93 728.58-21.25 728.58-18.85L728.58-18.85Q728.58-15.3 725.38-13.25 722.18-11.2 717.98-11.2L717.98-11.2Q714.13-11.2 711.68-12.85L711.68-12.85Q711.18-11.35 711.18-9.4L711.18-9.4Q711.18-5.8 713.13-3.75 715.08-1.7 718.63-1.7L718.63-1.7Q720.48-1.7 722.15-2.73 723.83-3.75 723.83-5.5L723.83-5.5Q723.83-6.5 723.48-7.2ZM712.38-14.7L712.38-14.7Q714.23-13.4 717.53-13.4L717.53-13.4Q720.93-13.4 723.5-14.88 726.08-16.35 726.08-19.1L726.08-19.1Q726.08-22.35 721.78-22.35L721.78-22.35Q718.43-22.35 715.83-20.1 713.23-17.85 712.38-14.7ZM759.67-16.5L759.67-16.5Q758.57-16.5 757.97-17.18 757.37-17.85 757.37-18.8L757.37-18.8Q757.37-19.7 757.92-20.48 758.47-21.25 759.47-21.45L759.47-21.45Q759.42-21.9 758.97-22.23 758.52-22.55 758.02-22.55L758.02-22.55Q756.12-22.55 754.85-20.85 753.57-19.15 752.95-16.63 752.32-14.1 751.5-11.13 750.67-8.15 749.77-5.63 748.87-3.1 746.97-1.4 745.07 0.3 742.37 0.3L742.37 0.3Q739.42 0.3 738.2-1.1 736.97-2.5 736.97-5.1L736.97-5.1Q736.97-6.6 738.42-12.48 739.87-18.35 739.87-20.35L739.87-20.35Q739.87-22.5 738.37-22.5L738.37-22.5Q737.27-22.5 735.87-21.45 734.47-20.4 733.87-19.3L733.87-19.3Q734.97-18.45 734.97-17.45L734.97-17.45Q734.97-16.6 734.45-16 733.92-15.4 733.17-15.4L733.17-15.4Q732.37-15.4 731.87-16.1 731.37-16.8 731.37-18.05L731.37-18.05Q731.37-20.25 733.67-22.4 735.97-24.55 738.52-24.55L738.52-24.55Q742.37-24.55 742.37-20.4L742.37-20.4Q742.37-18.2 740.95-12.8 739.52-7.4 739.52-5.45L739.52-5.45Q739.52-1.85 741.77-1.85L741.77-1.85Q744.52-1.85 746.2-4.2 747.87-6.55 748.67-9.88 749.47-13.2 750.32-16.55 751.17-19.9 752.97-22.25 754.77-24.6 757.72-24.6L757.72-24.6Q761.87-24.6 761.87-20.15L761.87-20.15Q761.87-18.75 761.37-17.63 760.87-16.5 759.67-16.5ZM774.62-9.65L774.62-9.65Q774.07-8.35 772.92-8.35L772.92-8.35Q772.32-8.35 771.9-8.72 771.47-9.1 771.47-9.65L771.47-9.65Q771.47-10.25 772.12-10.85L772.12-10.85Q770.82-11.4 770.82-12.3L770.82-12.3Q770.82-12.85 771.3-13.25 771.77-13.65 772.57-13.65L772.57-13.65Q772.92-13.65 773.12-13.6L773.12-13.6Q773.22-14.55 773.67-15.1 774.12-15.65 774.62-15.65L774.62-15.65Q775.17-15.65 775.62-15.1 776.07-14.55 776.12-13.6L776.12-13.6Q776.27-13.65 776.72-13.65L776.72-13.65Q778.47-13.65 778.47-12.45L778.47-12.45Q778.47-11.4 777.17-10.85L777.17-10.85Q777.82-10.25 777.82-9.65L777.82-9.65Q777.82-9.1 777.4-8.72 776.97-8.35 776.37-8.35L776.37-8.35Q775.17-8.35 774.62-9.65ZM774.57-10.5L774.57-10.5Q774.77-10.15 775.42-9.75 776.07-9.35 776.37-9.35L776.37-9.35Q776.82-9.35 776.82-9.65L776.82-9.65Q776.82-10.5 775.57-11.3L775.57-11.3Q777.47-12.05 777.47-12.3L777.47-12.3Q777.47-12.65 776.72-12.65L776.72-12.65 775.17-12.6Q775.02-14.65 774.62-14.65L774.62-14.65Q774.27-14.65 774.02-12.6L774.02-12.6Q773.77-12.6 773.52-12.63 773.27-12.65 773.07-12.65L773.07-12.65Q771.82-12.65 771.82-12.3L771.82-12.3Q771.82-12.05 773.72-11.3L773.72-11.3Q772.47-10.2 772.47-9.65L772.47-9.65Q772.47-9.35 772.92-9.35L772.92-9.35Q773.42-9.35 773.92-9.73 774.42-10.1 774.57-10.5ZM773.57 0.55L773.57 0.55Q769.42 0.55 767.17-2.35 764.92-5.25 764.92-9.95L764.92-9.95Q764.92-12.1 765.52-14.5 766.12-16.9 767.32-19.28 768.52-21.65 770.72-23.18 772.92-24.7 775.77-24.7L775.77-24.7Q779.92-24.7 782.17-21.8 784.42-18.9 784.42-14.2L784.42-14.2Q784.42-11.9 783.67-9.25L783.67-9.25Q783.42-7.55 783.35-5.83 783.27-4.1 784.3-2.8 785.32-1.5 787.42-1.5L787.42-1.5Q789.57-1.5 790.85-2.9 792.12-4.3 792.12-6.15L792.12-6.15Q792.12-7.3 791.45-8 790.77-8.7 789.87-8.7L789.87-8.7Q788.42-8.7 787.82-7.2L787.82-7.2Q788.67-7.2 789.25-6.6 789.82-6 789.82-5.15L789.82-5.15Q789.82-4.15 789.27-3.6 788.72-3.05 787.97-3.05L787.97-3.05Q786.97-3.05 786.27-3.8 785.57-4.55 785.57-5.95L785.57-5.95Q785.57-7.7 786.72-9.13 787.87-10.55 789.77-10.55L789.77-10.55Q791.77-10.55 793.1-9.3 794.42-8.05 794.42-5.8L794.42-5.8Q794.42-3 792.27-1.2 790.12 0.6 787.22 0.6L787.22 0.6Q782.27 0.6 781.27-3.7L781.27-3.7Q778.32 0.55 773.57 0.55ZM773.57-1.8L773.57-1.8Q777.32-1.8 779.65-5.58 781.97-9.35 781.97-13.8L781.97-13.8Q781.97-15.3 781.67-16.73 781.37-18.15 780.7-19.45 780.02-20.75 778.77-21.55 777.52-22.35 775.82-22.35L775.82-22.35Q772.02-22.35 769.67-18.57 767.32-14.8 767.32-10.35L767.32-10.35Q767.32-6.95 768.82-4.38 770.32-1.8 773.57-1.8ZM805.17-21.5L805.17-21.5 804.22-21.5Q800.22-14.65 800.22-8.25 800.22-1.85 804.22-1.85L804.22-1.85Q805.72-1.85 807.27-2.58 808.82-3.3 809.27-4.35L809.27-4.35Q808.12-5.2 808.12-6.45L808.12-6.45Q808.12-7.55 808.94-8.4 809.77-9.25 810.87-9.25L810.87-9.25Q812.97-9.25 812.97-7.2L812.97-7.2Q812.97-4.2 810.04-1.83 807.12 0.55 803.92 0.55L803.92 0.55Q800.57 0.55 799.09-1.88 797.62-4.3 797.62-8.05L797.62-8.05Q797.62-14.7 801.57-21.9L801.57-21.9Q799.32-22.45 797.92-23.6 796.52-24.75 796.52-26.2L796.52-26.2Q796.52-27.05 796.99-27.63 797.47-28.2 798.37-28.2L798.37-28.2Q799.32-28.2 800.07-27.53 800.82-26.85 800.82-25.7L800.82-25.7Q800.82-25.25 800.62-24.5L800.62-24.5Q801.72-24.05 802.72-23.85L802.72-23.85Q806.12-29.75 806.27-30.05L806.27-30.05Q805.57-30.5 805.07-31.25 804.57-32 804.57-32.65L804.57-32.65Q804.57-33.75 805.32-34.4 806.07-35.05 807.02-35.05 807.97-35.05 808.62-34.45 809.27-33.85 809.27-32.75L809.27-32.75Q809.27-30.1 805.47-23.6L805.47-23.6Q807.32-23.65 809.72-24.5L809.72-24.5Q809.52-25.25 809.52-25.7L809.52-25.7Q809.52-26.85 810.27-27.53 811.02-28.2 811.97-28.2L811.97-28.2Q812.87-28.2 813.34-27.63 813.82-27.05 813.82-26.2L813.82-26.2Q813.82-24.15 811.29-22.83 808.77-21.5 805.17-21.5ZM831.82-7.2L831.82-7.2Q831.72-6.4 831.04-5.8 830.37-5.2 829.52-5.2L829.52-5.2Q828.77-5.2 828.24-5.68 827.72-6.15 827.72-7L827.72-7Q827.72-7.9 828.62-8.55 829.52-9.2 830.92-9.2L830.92-9.2Q832.42-9.2 833.27-8.2 834.12-7.2 834.12-5.7L834.12-5.7Q834.12-3 832.09-1.23 830.07 0.55 826.57 0.55L826.57 0.55Q822.37 0.55 819.57-2.1 816.77-4.75 816.77-9.75L816.77-9.75Q816.77-13.3 818.29-16.68 819.82-20.05 822.79-22.33 825.77-24.6 829.42-24.6L829.42-24.6Q832.97-24.6 834.94-22.93 836.92-21.25 836.92-18.85L836.92-18.85Q836.92-15.3 833.72-13.25 830.52-11.2 826.32-11.2L826.32-11.2Q822.47-11.2 820.02-12.85L820.02-12.85Q819.52-11.35 819.52-9.4L819.52-9.4Q819.52-5.8 821.47-3.75 823.42-1.7 826.97-1.7L826.97-1.7Q828.82-1.7 830.49-2.73 832.17-3.75 832.17-5.5L832.17-5.5Q832.17-6.5 831.82-7.2ZM820.72-14.7L820.72-14.7Q822.57-13.4 825.87-13.4L825.87-13.4Q829.27-13.4 831.84-14.88 834.42-16.35 834.42-19.1L834.42-19.1Q834.42-22.35 830.12-22.35L830.12-22.35Q826.77-22.35 824.17-20.1 821.57-17.85 820.72-14.7ZM869.31-1.05L869.31-1.05Q871.01-1.05 872.49-2.08 873.96-3.1 875.16-5.05 876.36-7 877.29-9.18 878.21-11.35 879.11-14.2L879.11-14.2Q877.66-13 875.56-12.2 873.46-11.4 871.66-11.4L871.66-11.4Q869.41-11.4 867.99-12.55 866.56-13.7 866.56-16.25L866.56-16.25Q866.56-18.3 867.84-22.45 869.11-26.6 869.11-27.75L869.11-27.75Q869.11-30.8 866.06-30.8L866.06-30.8Q862.71-30.8 859.99-28.25 857.26-25.7 857.26-21.8L857.26-21.8Q857.26-20.7 857.96-20.05 858.66-19.4 859.61-19.4L859.61-19.4Q860.61-19.4 861.71-20.1L861.71-20.1Q861.06-20.9 861.06-21.95L861.06-21.95Q861.06-22.8 861.51-23.28 861.96-23.75 862.66-23.75L862.66-23.75Q863.41-23.75 863.99-23.23 864.56-22.7 864.56-21.7L864.56-21.7Q864.56-19.95 862.86-18.73 861.16-17.5 859.41-17.5L859.41-17.5Q857.26-17.5 856.14-18.85 855.01-20.2 855.01-22.2L855.01-22.2Q855.01-26.4 858.16-29.68 861.31-32.95 865.91-32.95L865.91-32.95Q868.36-32.95 870.09-31.83 871.81-30.7 871.81-28.3L871.81-28.3Q871.81-26.7 870.51-22.73 869.21-18.75 869.21-16.9L869.21-16.9Q869.21-13.65 872.21-13.65L872.21-13.65Q874.06-13.65 876.39-14.83 878.71-16 880.06-17.45L880.06-17.45Q880.36-18.6 881.11-21.33 881.86-24.05 882.24-25.38 882.61-26.7 883.19-28.4 883.76-30.1 884.26-31.1L884.26-31.1Q884.61-31.8 885.46-31.8L885.46-31.8Q886.01-31.8 886.41-31.48 886.81-31.15 886.81-30.65L886.81-30.65Q886.81-30.5 886.56-29.85L886.56-29.85Q885.46-27.45 884.34-23.75 883.21-20.05 882.41-16.88 881.61-13.7 880.39-10.3 879.16-6.9 877.84-4.53 876.51-2.15 874.41-0.6 872.31 0.95 869.66 0.95L869.66 0.95Q866.66 0.95 865.09-0.45 863.51-1.85 863.51-4.25L863.51-4.25Q863.51-5.75 864.21-6.8 864.91-7.85 866.36-7.85L866.36-7.85Q867.26-7.85 867.84-7.28 868.41-6.7 868.41-5.6L868.41-5.6Q868.41-4.65 867.66-3.98 866.91-3.3 865.76-3.3L865.76-3.3Q866.26-1.1 869.31-1.05ZM898.61 0.45L898.61 0.45Q893.51 0.45 890.78-2.43 888.06-5.3 888.06-9.9L888.06-9.9Q888.06-11.55 888.48-13.4 888.91-15.25 889.91-17.25 890.91-19.25 892.41-20.83 893.91-22.4 896.26-23.43 898.61-24.45 901.46-24.45L901.46-24.45Q906.56-24.45 909.31-21.58 912.06-18.7 912.06-14.1L912.06-14.1Q912.06-12.45 911.63-10.58 911.21-8.7 910.16-6.73 909.11-4.75 907.63-3.18 906.16-1.6 903.81-0.58 901.46 0.45 898.61 0.45ZM898.61-1.65L898.61-1.65Q901.96-1.65 904.51-3.58 907.06-5.5 908.26-8.2 909.46-10.9 909.46-13.7L909.46-13.7Q909.46-15.85 908.81-17.68 908.16-19.5 906.31-20.93 904.46-22.35 901.56-22.35L901.56-22.35Q898.21-22.35 895.63-20.43 893.06-18.5 891.86-15.8 890.66-13.1 890.66-10.3L890.66-10.3Q890.66-8.15 891.31-6.33 891.96-4.5 893.83-3.08 895.71-1.65 898.61-1.65ZM898.31-13.3L898.31-13.3Q897.31-14.2 897.31-14.6L897.31-14.6Q897.31-15.05 897.91-15.43 898.51-15.8 899.06-15.8L899.06-15.8Q899.31-15.8 899.46-15.48 899.61-15.15 899.66-14.55 899.71-13.95 899.71-13.9L899.71-13.9Q900.16-13.9 900.56-13.8L900.56-13.8Q900.61-13.85 900.78-14.45 900.96-15.05 901.16-15.33 901.36-15.6 901.61-15.6L901.61-15.6Q902.21-15.6 902.81-15.1 903.41-14.6 903.41-14.05L903.41-14.05Q903.41-13.75 901.86-13.05L901.86-13.05Q902.11-12.8 902.16-12.55L902.16-12.55Q903.36-13.15 903.66-13.15L903.66-13.15Q904.61-13.15 904.61-12.05L904.61-12.05Q904.61-10.5 903.36-10.5L903.36-10.5Q903.21-10.5 902.11-10.95L902.11-10.95Q902.06-10.8 901.61-10.35L901.61-10.35Q902.76-9.2 902.76-8.8L902.76-8.8Q902.76-8.3 902.23-7.98 901.71-7.65 901.11-7.65L901.11-7.65Q900.56-7.65 900.31-9.8L900.31-9.8Q899.96-9.7 899.61-9.8L899.61-9.8Q899.56-9.75 899.31-9.03 899.06-8.3 898.81-7.95 898.56-7.6 898.31-7.6L898.31-7.6Q897.76-7.6 897.16-8.1 896.56-8.6 896.56-9.15L896.56-9.15Q896.56-9.35 898.11-10.5L898.11-10.5Q897.91-10.7 897.71-11.1L897.71-11.1Q897.46-10.85 896.31-10.85L896.31-10.85Q895.51-10.85 895.51-11.95L895.51-11.95Q895.51-12.9 896.36-12.9L896.36-12.9Q897.51-12.9 897.76-12.7L897.76-12.7Q897.96-13.1 898.31-13.3ZM898.86-12.75L898.86-12.75Q898.46-12.35 898.46-11.8 898.46-11.25 898.88-10.83 899.31-10.4 899.86-10.4 900.41-10.4 900.83-10.83 901.26-11.25 901.26-11.8 901.26-12.35 900.83-12.78 900.41-13.2 899.86-13.2 899.31-13.2 898.86-12.75ZM920.96-22.75L920.96-22.75Q919.21-22.75 917.83-21.43 916.46-20.1 916.46-18.45L916.46-18.45Q916.46-17.2 917.21-16.2L917.21-16.2Q917.41-17 918.11-17.73 918.81-18.45 919.81-18.45L919.81-18.45Q920.61-18.45 921.11-17.78 921.61-17.1 921.61-16.3L921.61-16.3Q921.61-15.25 920.78-14.38 919.96-13.5 918.41-13.5L918.41-13.5Q916.71-13.5 915.58-14.98 914.46-16.45 914.46-18.55L914.46-18.55Q914.46-21.4 916.28-23.13 918.11-24.85 920.96-24.85L920.96-24.85Q923.61-24.85 925.03-23.25 926.46-21.65 926.46-19.15L926.46-19.15Q926.46-16.75 924.26-12.1 922.06-7.45 922.06-4.95L922.06-4.95Q922.06-2.05 924.91-2.05L924.91-2.05Q927.11-2.05 930.48-4.83 933.86-7.6 935.31-10.5L935.31-10.5Q935.66-11.6 937.21-16.45 938.76-21.3 938.86-23.8L938.86-23.8Q938.86-24.55 940.31-24.55L940.31-24.55Q941.36-24.55 941.36-24.05L941.36-24.05Q941.36-21.3 939.08-14.43 936.81-7.55 936.81-5.4L936.81-5.4Q936.81-1.55 939.76-1.55L939.76-1.55Q941.51-1.55 942.88-2.88 944.26-4.2 944.26-5.85L944.26-5.85Q944.26-7.1 943.51-8.1L943.51-8.1Q943.31-7.3 942.61-6.58 941.91-5.85 940.91-5.85L940.91-5.85Q940.11-5.85 939.61-6.53 939.11-7.2 939.11-8L939.11-8Q939.11-9.05 939.93-9.93 940.76-10.8 942.31-10.8L942.31-10.8Q944.01-10.8 945.13-9.33 946.26-7.85 946.26-5.75L946.26-5.75Q946.26-2.9 944.43-1.18 942.61 0.55 939.76 0.55L939.76 0.55Q937.11 0.55 935.68-1.05 934.26-2.65 934.26-5.15L934.26-5.15 934.26-5.95Q932.91-3.8 929.88-1.63 926.86 0.55 924.71 0.55L924.71 0.55Q919.56 0.55 919.56-4.7L919.56-4.7Q919.56-7.45 921.73-12.1 923.91-16.75 923.91-18.9L923.91-18.9Q923.91-22.75 920.96-22.75ZM951.4-20L951.4-20Q952.6-20 953.3-19.35 954-18.7 954-17.85L954-17.85Q954-17.2 953.6-16.78 953.2-16.35 952.5-16.35L952.5-16.35Q951.15-16.35 950.4-17.32 949.65-18.3 949.65-20.05L949.65-20.05Q949.65-22.05 950.73-23.35 951.8-24.65 953.85-24.65L953.85-24.65Q955.1-24.65 956.8-23.58 958.5-22.5 959.35-22.5L959.35-22.5Q960.45-22.5 962.15-23.53 963.85-24.55 964.7-24.65L964.7-24.65Q965.6-24.65 966.1-24.23 966.6-23.8 966.6-23.1L966.6-23.1Q966.6-21.35 965.25-19.03 963.9-16.7 962.25-14.7 960.6-12.7 958.98-9.75 957.35-6.8 957.35-4.9L957.35-4.9Q957.35-1.65 960.2-1.65L960.2-1.65Q961.95-1.65 963.2-2.7L963.2-2.7Q962.6-2.9 962.1-3.7 961.6-4.5 961.6-5.2L961.6-5.2Q961.6-6.15 962.18-6.88 962.75-7.6 963.7-7.6 964.65-7.6 965.3-6.9 965.95-6.2 965.95-5.25L965.95-5.25Q965.95-2.6 964.03-1.03 962.1 0.55 959.8 0.55L959.8 0.55Q957.55 0.55 956.2-0.95 954.85-2.45 954.75-4.7L954.75-4.7Q954.75-7.1 956.25-9.95 957.75-12.8 960.63-16.73 963.5-20.65 964.3-21.95L964.3-21.95Q961.85-20 959.35-20L959.35-20Q957.65-20 955.7-21.13 953.75-22.25 953.2-22.25L953.2-22.25Q951.6-22.25 951.4-20ZM1010.65 0.8L1010.65 0.8Q1008.95 0.75 1006.97 0.35 1005-0.05 1001.45-1.83 997.9-3.6 997.75-3.7L997.75-3.7Q993.3 0.5 988.3 0.5L988.3 0.5Q983.6 0.5 983.25-3.3L983.25-3.3Q983.25-5.45 985.2-7.1 987.15-8.75 990.05-8.75L990.05-8.75Q992.85-8.75 997.05-6.7L997.05-6.7Q1000.45-10.5 1002.67-15.95 1004.9-21.4 1004.9-26.4L1004.9-26.4Q1004.9-28.8 1003.35-28.8L1003.35-28.8Q1001.6-28.8 1000-27.85 998.4-26.9 997.55-25.3L997.55-25.3Q998.65-24.4 998.65-23.4 998.65-22.4 998.17-21.88 997.7-21.35 997-21.35L997-21.35Q996.2-21.35 995.6-22.08 995-22.8 995-24.05L995-24.05Q995-26.55 997.82-29.13 1000.65-31.7 1003.1-31.7L1003.1-31.7Q1007.5-31.7 1007.5-26.6L1007.5-26.6Q1007.5-21.3 1005.3-15.45 1003.1-9.6 999.45-5.45L999.45-5.45Q1001.9-4.15 1003.17-3.53 1004.45-2.9 1006.6-2.23 1008.75-1.55 1010.6-1.55L1010.6-1.55Q1014-1.55 1016.35-3.3 1018.7-5.05 1018.7-8.6L1018.7-8.6Q1018.7-11.1 1017.05-12.58 1015.4-14.05 1013.3-14.05L1013.3-14.05Q1011.35-14.05 1010.15-12.63 1008.95-11.2 1008.95-9.5L1008.95-9.5Q1008.95-7.25 1010.9-6.8L1010.9-6.8Q1010.9-8.25 1011.52-9.15 1012.15-10.05 1013.1-10.05L1013.1-10.05Q1014.15-10.05 1014.77-9.28 1015.4-8.5 1015.4-7.45L1015.4-7.45Q1015.4-6.25 1014.6-5.4 1013.8-4.55 1012.4-4.55L1012.4-4.55Q1009.7-4.55 1008.25-6.13 1006.8-7.7 1006.8-10L1006.8-10Q1006.8-12.5 1008.47-14.45 1010.15-16.4 1012.95-16.4L1012.95-16.4Q1016.05-16.4 1018.62-14.13 1021.2-11.85 1021.2-8.3L1021.2-8.3Q1021.2-4.05 1018.1-1.63 1015 0.8 1010.65 0.8ZM985.65-3.45L985.65-3.45Q985.7-1.75 988.45-1.75L988.45-1.75Q991.75-1.75 995.25-4.95L995.25-4.95Q992.1-6.35 990.15-6.35L990.15-6.35Q988.3-6.35 986.97-5.63 985.65-4.9 985.65-3.45ZM1033.6-37.65L1033.6-37.65Q1035.45-37.65 1036.65-36.45 1037.85-35.25 1037.85-33.4L1037.85-33.4Q1037.85-31.3 1036.45-30.05 1035.05-28.8 1033.15-28.8 1031.25-28.8 1030.05-29.95 1028.85-31.1 1028.85-32.95 1028.85-34.8 1030.17-36.23 1031.5-37.65 1033.6-37.65ZM1033.4-35.1L1033.4-35.1Q1032.45-35.1 1031.77-34.58 1031.1-34.05 1031.1-33.05L1031.1-33.05Q1031.1-31.25 1033.15-31.25L1033.15-31.25Q1034.1-31.25 1034.8-31.75 1035.5-32.25 1035.5-33.25L1035.5-33.25Q1035.5-35.1 1033.4-35.1ZM1035.55-3.1L1035.55-3.1Q1034.25-3.7 1034.25-5.05L1034.25-5.05Q1034.25-6 1034.9-6.7 1035.55-7.4 1036.55-7.4L1036.55-7.4Q1037.5-7.4 1038.2-6.65 1038.9-5.9 1038.9-4.9L1038.9-4.9Q1038.9-2.6 1036.35-1.05 1033.8 0.5 1031.2 0.5L1031.2 0.5Q1029.2 0.5 1027.87-0.55 1026.55-1.6 1026.55-3.65L1026.55-3.65Q1026.55-5.9 1028.05-9.58 1029.55-13.25 1031.05-16.57 1032.55-19.9 1032.55-21.25L1032.55-21.25Q1032.55-22.55 1031.25-22.55L1031.25-22.55Q1030.15-22.55 1028.52-21.75 1026.9-20.95 1026.4-20.15L1026.4-20.15Q1027-19.95 1027.42-19.45 1027.85-18.95 1027.85-18.3L1027.85-18.3Q1027.85-17.5 1027.3-16.9 1026.75-16.3 1026-16.3L1026-16.3Q1024.15-16.3 1024.15-19.3L1024.15-19.3Q1024.15-21.65 1026.37-23.15 1028.6-24.65 1031.15-24.65L1031.15-24.65Q1032.85-24.65 1033.95-23.75 1035.05-22.85 1035.05-21.1L1035.05-21.1Q1035.05-19.95 1033.57-16.65 1032.1-13.35 1030.65-9.73 1029.2-6.1 1029.2-4.05L1029.2-4.05Q1029.2-1.75 1031.35-1.75L1031.35-1.75Q1034.05-1.75 1035.55-3.1ZM1046.64 1.6L1046.64 1.6Q1047.74 1.6 1048.59 1.2 1049.44 0.8 1050.07-0.08 1050.69-0.95 1051.14-1.93 1051.59-2.9 1051.87-4.42 1052.14-5.95 1052.34-7.28 1052.54-8.6 1052.64-10.58 1052.74-12.55 1052.82-14.03 1052.89-15.5 1052.97-17.7 1053.04-19.9 1053.09-21.3L1053.09-21.3Q1051.89-21.2 1051.34-21.2L1051.34-21.2Q1048.04-21.2 1046.87-20.58 1045.69-19.95 1045.69-17.75L1045.69-17.75Q1045.69-17.05 1046.02-16.5 1046.34-15.95 1046.94-15.95L1046.94-15.95Q1047.19-15.95 1047.34-16L1047.34-16Q1047.14-16.4 1047.14-16.95L1047.14-16.95Q1047.14-17.75 1047.69-18.32 1048.24-18.9 1048.99-18.9L1048.99-18.9Q1049.79-18.9 1050.32-18.35 1050.84-17.8 1050.84-16.95L1050.84-16.95Q1050.84-15.6 1049.89-14.85 1048.94-14.1 1047.54-14.1L1047.54-14.1Q1045.89-14.1 1044.62-15.2 1043.34-16.3 1043.34-18.3L1043.34-18.3Q1043.34-19.95 1043.97-21.03 1044.59-22.1 1045.84-22.55 1047.09-23 1048.24-23.15 1049.39-23.3 1051.14-23.3L1051.14-23.3Q1052.19-23.3 1053.24-23.45L1053.24-23.45Q1053.69-30 1055.14-33.3L1055.14-33.3Q1056.04-35.45 1057.52-36.55 1058.99-37.65 1060.44-37.65L1060.44-37.65Q1062.04-37.65 1062.99-36.3 1063.94-34.95 1063.94-32.5L1063.94-32.5Q1063.94-28.1 1061.67-25.45 1059.39-22.8 1055.74-21.75L1055.74-21.75Q1055.74-21.7 1055.72-21.55 1055.69-21.4 1055.69-21.3L1055.69-21.3Q1058.39-19.6 1060.39-19.6L1060.39-19.6Q1061.19-19.6 1062.04-20.15L1062.04-20.15Q1061.69-20.95 1061.69-21.8L1061.69-21.8Q1061.69-23.65 1063.29-23.65L1063.29-23.65Q1064.04-23.65 1064.54-23.08 1065.04-22.5 1065.04-21.6L1065.04-21.6Q1065.04-17.65 1060.09-17.65L1060.09-17.65Q1057.94-17.65 1055.59-18.95L1055.59-18.95Q1055.14-8.55 1054.39-4.8L1054.39-4.8Q1052.74 3.35 1047.59 3.75L1047.59 3.75Q1047.34 3.75 1047.09 3.75L1047.09 3.75Q1044.59 3.75 1043.14 2.45 1041.69 1.15 1041.69-1.45L1041.69-1.45Q1041.69-3.55 1043.09-4.78 1044.49-6 1046.14-6L1046.14-6Q1047.09-6 1047.74-5.35 1048.39-4.7 1048.39-3.75 1048.39-2.8 1047.74-2.15 1047.09-1.5 1046.14-1.5L1046.14-1.5Q1044.74-1.5 1044.09-2.5L1044.09-2.5Q1043.79-1.9 1043.79-1.05L1043.79-1.05Q1043.79 0 1044.57 0.8 1045.34 1.6 1046.64 1.6ZM1057.39-32.35L1057.39-32.35Q1056.34-29.7 1055.89-24.1L1055.89-24.1Q1061.54-26.25 1061.54-32.65L1061.54-32.65Q1061.54-35.4 1060.19-35.4L1060.19-35.4Q1058.69-35.4 1057.39-32.35ZM1082.44-7.2L1082.44-7.2Q1082.34-6.4 1081.67-5.8 1080.99-5.2 1080.14-5.2L1080.14-5.2Q1079.39-5.2 1078.87-5.68 1078.34-6.15 1078.34-7L1078.34-7Q1078.34-7.9 1079.24-8.55 1080.14-9.2 1081.54-9.2L1081.54-9.2Q1083.04-9.2 1083.89-8.2 1084.74-7.2 1084.74-5.7L1084.74-5.7Q1084.74-3 1082.72-1.23 1080.69 0.55 1077.19 0.55L1077.19 0.55Q1072.99 0.55 1070.19-2.1 1067.39-4.75 1067.39-9.75L1067.39-9.75Q1067.39-13.3 1068.92-16.68 1070.44-20.05 1073.42-22.33 1076.39-24.6 1080.04-24.6L1080.04-24.6Q1083.59-24.6 1085.57-22.93 1087.54-21.25 1087.54-18.85L1087.54-18.85Q1087.54-15.3 1084.34-13.25 1081.14-11.2 1076.94-11.2L1076.94-11.2Q1073.09-11.2 1070.64-12.85L1070.64-12.85Q1070.14-11.35 1070.14-9.4L1070.14-9.4Q1070.14-5.8 1072.09-3.75 1074.04-1.7 1077.59-1.7L1077.59-1.7Q1079.44-1.7 1081.12-2.73 1082.79-3.75 1082.79-5.5L1082.79-5.5Q1082.79-6.5 1082.44-7.2ZM1071.34-14.7L1071.34-14.7Q1073.19-13.4 1076.49-13.4L1076.49-13.4Q1079.89-13.4 1082.47-14.88 1085.04-16.35 1085.04-19.1L1085.04-19.1Q1085.04-22.35 1080.74-22.35L1080.74-22.35Q1077.39-22.35 1074.79-20.1 1072.19-17.85 1071.34-14.7ZM1093.89-33.8L1093.89-33.8Q1095.99-33.8 1095.99-30.5L1095.99-30.5Q1095.99-27.7 1095.29-25.23 1094.59-22.75 1093.59-22.75L1093.59-22.75Q1093.09-22.75 1092.89-22.95L1092.89-22.95Q1092.49-23.2 1092.16-25.08 1091.84-26.95 1091.84-29L1091.84-29Q1091.84-33.8 1093.89-33.8ZM1102.34-33.8L1102.34-33.8Q1104.44-33.8 1104.44-30.5L1104.44-30.5Q1104.44-27.7 1103.74-25.23 1103.04-22.75 1102.04-22.75L1102.04-22.75Q1101.54-22.75 1101.34-22.95L1101.34-22.95Q1100.94-23.2 1100.61-25.08 1100.29-26.95 1100.29-29L1100.29-29Q1100.29-33.8 1102.34-33.8Z" opacity="1" transform="matrix(1,0,0,1,0,0)" fill="#ffffff" class="slogan-text-1" data-fill-palette-color="secondary" id="text-1"></path></svg></g></svg></g></svg></g></svg></g><g transform="matrix(1,0,0,1,142.3581828817027,0)"><svg viewBox="0 0 112.78123423659449 147.42496356234602" height="147.42496356234602" width="112.78123423659449"><g><svg xmlns="http://www.w3.org/2000/svg" xmlns:xlink="http://www.w3.org/1999/xlink" version="1.1" x="0" y="0" viewBox="19.398382093084653 10.001 61.199405666469204 79.99841650508338" enable-background="new 0 0 100 100" xml:space="preserve" height="147.42496356234602" width="112.78123423659449" class="icon-icon-0" data-fill-palette-color="accent" id="icon-0"><g fill="#f36527" data-fill-palette-color="accent"><path fill-rule="evenodd" clip-rule="evenodd" d="M41.66 73.734C41.389 71.851 41.173 70.145 40.891 68.449 39.874 62.328 37.282 56.821 34.295 51.455 32.027 47.382 29.607 43.382 27.987 38.976 27.265 37.012 26.664 34.951 27.044 32.921 27.3 31.554 28.194 30.209 29.091 29.083A43.6 43.6 0 0 1 33.605 24.258C37.021 21.095 40.533 18.035 44.009 14.938 45.696 13.435 47.39 11.941 49.082 10.444 49.213 10.329 49.354 10.225 49.669 10.224 49.335 10.897 49.057 11.603 48.659 12.236 45.95 16.558 42.589 20.354 39.129 24.078 37.363 25.979 35.616 27.912 34.549 30.339 33.778 32.091 33.848 33.767 34.695 35.497 36.955 40.104 39.926 44.239 43.055 48.271 44.114 49.635 45.256 50.935 46.528 52.466 46.83 50.789 46.509 49.483 45.925 48.222 45.411 47.113 44.862 46.021 44.393 45.056 44.007 44.783 43.56 44.618 43.362 44.298 42.769 43.342 43.082 41.524 43.817 40.597 44.009 40.355 44.002 39.916 44.004 39.567 44.016 37.911 44.432 36.378 45.515 35.11 47.225 33.108 49.403 32.614 51.867 33.393 54.185 34.126 55.304 35.898 55.763 38.164 55.885 38.767 55.885 39.393 55.957 40.008 55.98 40.21 55.986 40.477 56.111 40.595 57.251 41.665 56.967 42.965 56.636 44.211 56.545 44.553 55.981 44.77 55.427 45.206 55.063 47.34 52.886 49.285 53.492 52.266 54.158 51.52 54.74 50.912 55.272 50.264 58.87 45.883 62.126 41.279 64.891 36.311 66.538 33.351 66.109 30.697 64.182 28.219 62.323 25.827 60.238 23.613 58.265 21.308 55.69 18.298 53.049 15.336 51.086 11.863 50.827 11.406 50.614 10.923 50.39 10.447 50.356 10.375 50.377 10.276 50.365 10.001 51.49 11.018 52.506 11.934 53.519 12.854 57.644 16.606 61.796 20.329 65.878 24.126 67.669 25.792 69.318 27.61 71.028 29.363 73.141 31.529 73.317 34.116 72.597 36.863 71.61 40.629 69.768 44.019 67.909 47.404 65.324 52.113 62.545 56.726 60.727 61.82 59.358 65.656 58.61 69.618 58.206 73.771 59.394 73.13 60.494 72.489 61.636 71.932 66.365 69.623 71.385 68.612 76.63 68.726 77.318 68.741 78.039 68.948 78.674 69.229 80.312 69.957 80.941 71.554 80.418 73.534 79.687 76.304 77.939 78.429 75.896 80.307 72.96 83.007 69.661 85.209 65.944 86.666A48 48 0 0 1 53.274 89.737C49.366 90.135 45.46 90.15 41.614 89.289A39.4 39.4 0 0 1 28.138 83.493C25.21 81.526 22.464 79.339 20.709 76.213A10.9 10.9 0 0 1 19.431 72.407C19.185 70.539 20.351 69.181 22.235 68.901A17.5 17.5 0 0 1 25.839 68.724C30.647 69.01 35.222 70.201 39.489 72.477 39.843 72.666 40.176 72.893 40.523 73.095 40.838 73.279 41.158 73.452 41.66 73.734" fill="#ffffff" data-fill-palette-color="accent"></path></g></svg></g></svg></g><g></g></svg></g><defs></defs></svg><rect width="330.65024869368034" height="247.2" fill="none" stroke="none" visibility="hidden"></rect></g></svg></g></svg>